<svg width="5431" height="1555" viewBox="0 0 5431 1555" fill="none" xmlns="http://www.w3.org/2000/svg">
<g filter="url(#filter0_d_3_151)">
<g filter="url(#filter1_d_3_151)">
<rect x="4" width="5423" height="1547" fill="#DFFCFF"/>
<path d="M1346 408H1101.16L846 652.667L847.475 897.333L1101.16 1142H1346" stroke="#2C494C" stroke-width="8" stroke-linecap="round" stroke-linejoin="round"/>
<path d="M368 1142L611.185 897L847 1142" stroke="#2C494C" stroke-width="8" stroke-linecap="round" stroke-linejoin="round"/>
<path d="M366 479C405.212 479 437 447.212 437 408C437 368.788 405.212 337 366 337C326.788 337 295 368.788 295 408C295 447.212 326.788 479 366 479Z" fill="#2C494C" stroke="black" stroke-miterlimit="10"/>
<path d="M367 723C406.212 723 438 691.436 438 652.5C438 613.564 406.212 582 367 582C327.788 582 296 613.564 296 652.5C296 691.436 327.788 723 367 723Z" fill="#2C494C" stroke="black" stroke-miterlimit="10"/>
<path d="M368 968C407.212 968 439 936.436 439 897.5C439 858.564 407.212 827 368 827C328.788 827 297 858.564 297 897.5C297 936.436 328.788 968 368 968Z" fill="#2C494C" stroke="black" stroke-miterlimit="10"/>
<path d="M368.5 1213C407.436 1213 439 1181.21 439 1142C439 1102.79 407.436 1071 368.5 1071C329.564 1071 298 1102.79 298 1142C298 1181.21 329.564 1213 368.5 1213Z" fill="#2C494C" stroke="black" stroke-miterlimit="10"/>
<path d="M610.5 723C649.436 723 681 691.436 681 652.5C681 613.564 649.436 582 610.5 582C571.564 582 540 613.564 540 652.5C540 691.436 571.564 723 610.5 723Z" stroke="black" stroke-width="4" stroke-miterlimit="10"/>
<path d="M611 968C650.212 968 682 936.436 682 897.5C682 858.564 650.212 827 611 827C571.788 827 540 858.564 540 897.5C540 936.436 571.788 968 611 968Z" fill="#2C494C" stroke="black" stroke-miterlimit="10"/>
<path d="M612 1213C651.212 1213 683 1181.21 683 1142C683 1102.79 651.212 1071 612 1071C572.788 1071 541 1102.79 541 1142C541 1181.21 572.788 1213 612 1213Z" stroke="black" stroke-width="4" stroke-miterlimit="10"/>
<path d="M846.5 723C885.436 723 917 691.436 917 652.5C917 613.564 885.436 582 846.5 582C807.564 582 776 613.564 776 652.5C776 691.436 807.564 723 846.5 723Z" fill="#2C494C" stroke="black" stroke-miterlimit="10"/>
<path d="M847 968C886.212 968 918 936.436 918 897.5C918 858.564 886.212 827 847 827C807.788 827 776 858.564 776 897.5C776 936.436 807.788 968 847 968Z" fill="#2C494C" stroke="black" stroke-miterlimit="10"/>
<path d="M848 1213C887.212 1213 919 1181.21 919 1142C919 1102.79 887.212 1071 848 1071C808.788 1071 777 1102.79 777 1142C777 1181.21 808.788 1213 848 1213Z" fill="#2C494C" stroke="black" stroke-miterlimit="10"/>
<path d="M1100 723C1139.21 723 1171 691.436 1171 652.5C1171 613.564 1139.21 582 1100 582C1060.79 582 1029 613.564 1029 652.5C1029 691.436 1060.79 723 1100 723Z" stroke="black" stroke-width="4" stroke-miterlimit="10"/>
<path d="M1100.5 968C1139.44 968 1171 936.436 1171 897.5C1171 858.564 1139.44 827 1100.5 827C1061.56 827 1030 858.564 1030 897.5C1030 936.436 1061.56 968 1100.5 968Z" stroke="black" stroke-width="4" stroke-miterlimit="10"/>
<path d="M1101.5 1213C1140.44 1213 1172 1181.21 1172 1142C1172 1102.79 1140.44 1071 1101.5 1071C1062.56 1071 1031 1102.79 1031 1142C1031 1181.21 1062.56 1213 1101.5 1213Z" fill="#2C494C" stroke="black" stroke-miterlimit="10"/>
<path d="M1345 723C1384.21 723 1416 691.436 1416 652.5C1416 613.564 1384.21 582 1345 582C1305.79 582 1274 613.564 1274 652.5C1274 691.436 1305.79 723 1345 723Z" stroke="black" stroke-width="4" stroke-miterlimit="10"/>
<path d="M1345.5 968C1384.44 968 1416 936.436 1416 897.5C1416 858.564 1384.44 827 1345.5 827C1306.56 827 1275 858.564 1275 897.5C1275 936.436 1306.56 968 1345.5 968Z" stroke="black" stroke-width="4" stroke-miterlimit="10"/>
<path d="M1346 1213C1385.21 1213 1417 1181.21 1417 1142C1417 1102.79 1385.21 1071 1346 1071C1306.79 1071 1275 1102.79 1275 1142C1275 1181.21 1306.79 1213 1346 1213Z" fill="#2C494C" stroke="black" stroke-miterlimit="10"/>
<path d="M611 479C650.212 479 682 447.212 682 408C682 368.788 650.212 337 611 337C571.788 337 540 368.788 540 408C540 447.212 571.788 479 611 479Z" stroke="black" stroke-width="4" stroke-miterlimit="10"/>
<path d="M856 479C895.212 479 927 447.212 927 408C927 368.788 895.212 337 856 337C816.788 337 785 368.788 785 408C785 447.212 816.788 479 856 479Z" fill="#2C494C" stroke="black" stroke-miterlimit="10"/>
<path d="M1100.5 479C1139.44 479 1171 447.212 1171 408C1171 368.788 1139.44 337 1100.5 337C1061.56 337 1030 368.788 1030 408C1030 447.212 1061.56 479 1100.5 479Z" fill="#2C494C" stroke="black" stroke-miterlimit="10"/>
<path d="M1345.5 479C1384.44 479 1416 447.212 1416 408C1416 368.788 1384.44 337 1345.5 337C1306.56 337 1275 368.788 1275 408C1275 447.212 1306.56 479 1345.5 479Z" fill="#2C494C" stroke="black" stroke-miterlimit="10"/>
<path d="M2002.8 977.607C1986.75 977.607 1974.25 973.124 1965.28 964.159C1956.79 954.721 1952.07 937.026 1951.13 911.072C1950.66 883.231 1949.24 855.626 1946.88 828.257C1944.52 800.888 1940.75 774.935 1935.56 750.397C1928.48 714.534 1918.8 682.211 1906.54 653.426C1894.27 624.641 1877.04 599.868 1854.86 579.105C1851.09 575.33 1848.02 571.791 1845.66 568.488C1843.3 565.184 1842.12 561.409 1842.12 557.163C1842.12 547.253 1847.31 537.815 1857.7 528.85C1868.08 519.412 1880.35 514.693 1894.5 514.693C1911.02 514.693 1925.17 521.772 1936.97 535.928C1948.77 550.084 1958.91 569.903 1967.41 595.385C1977.32 621.338 1985.1 649.651 1990.77 680.323C1996.43 710.995 2000.2 742.375 2002.09 774.463C2004.45 806.079 2005.63 836.751 2005.63 866.48C2005.63 876.861 2007.05 883.703 2009.88 887.006C2012.71 890.31 2017.66 891.961 2024.74 891.961C2040.31 891.961 2055.65 887.242 2070.75 877.805C2086.32 868.367 2100.24 855.626 2112.51 839.582C2125.25 823.067 2135.4 804.899 2142.95 785.08C2150.5 765.261 2154.51 745.207 2154.98 724.916C2155.45 703.681 2151.68 683.154 2143.65 663.335C2136.1 643.045 2126.19 625.821 2113.93 611.665C2110.62 607.89 2108.03 604.586 2106.14 601.755C2104.72 598.452 2104.02 595.149 2104.02 591.846C2104.02 584.296 2107.08 576.981 2113.22 569.903C2119.35 562.825 2126.43 556.927 2134.45 552.208C2142.47 547.489 2149.32 545.13 2154.98 545.13C2166.78 545.13 2176.69 553.859 2184.71 571.319C2193.2 588.307 2200.28 609.069 2205.94 633.607C2213.96 664.751 2219.63 699.67 2222.93 738.364C2226.23 777.058 2227.89 817.876 2227.89 860.817C2227.89 872.614 2229.06 880.636 2231.42 884.883C2233.78 889.13 2238.97 891.253 2247 891.253C2263.98 891.253 2280.5 885.119 2296.54 872.85C2312.59 860.581 2326.74 843.829 2339.01 822.595C2351.75 800.888 2361.66 776.351 2368.74 748.982C2376.29 721.141 2380.07 691.884 2380.07 661.212C2380.07 638.09 2378.18 619.451 2374.4 605.294C2371.1 590.666 2367.8 580.285 2364.49 574.15C2359.78 565.184 2357.42 557.634 2357.42 551.5C2357.42 544.422 2360.48 537.815 2366.62 531.681C2373.22 525.075 2381.01 519.648 2389.98 515.401C2398.94 511.154 2406.73 509.031 2413.33 509.031C2423.72 509.031 2431.03 513.514 2435.28 522.479C2439.99 530.973 2442.83 541.591 2443.77 554.331C2445.19 567.072 2445.89 579.105 2445.89 590.43C2445.89 622.99 2442.35 657.201 2435.28 693.064C2428.67 728.455 2419 763.138 2406.26 797.113C2393.51 830.617 2378.18 861.053 2360.25 888.422C2342.79 915.319 2322.97 937.026 2300.79 953.541C2278.61 969.585 2254.78 977.607 2229.3 977.607C2212.31 977.607 2199.81 973.832 2191.79 966.282C2183.76 958.732 2178.57 948.115 2176.21 934.43C2173.85 920.746 2172.68 904.702 2172.68 886.299C2172.68 875.445 2172.68 865.3 2172.68 855.862C2173.15 845.953 2173.38 836.987 2173.38 828.965C2151.68 877.569 2125.49 914.611 2094.81 940.093C2064.14 965.102 2033.47 977.607 2002.8 977.607ZM2547.01 974.776C2535.69 974.776 2526.49 971.709 2519.41 965.574C2512.33 959.44 2508.79 946.935 2508.79 928.06C2508.79 918.622 2509.73 906.353 2511.62 891.253C2513.51 876.153 2515.4 861.053 2517.28 845.953C2522.47 812.449 2526.25 783.429 2528.61 758.891C2530.97 734.353 2532.15 709.344 2532.15 683.862C2532.15 660.268 2530.73 638.326 2527.9 618.035C2525.54 597.744 2519.17 580.285 2508.79 565.656C2505.01 559.522 2503.13 554.803 2503.13 551.5C2503.13 545.837 2506.19 539.939 2512.33 533.804C2518.94 527.198 2526.72 521.772 2535.69 517.525C2545.12 513.278 2553.85 511.154 2561.88 511.154C2576.5 511.154 2586.18 517.761 2590.9 530.973C2596.09 543.714 2598.68 559.758 2598.68 579.105C2598.68 590.902 2597.98 605.53 2596.56 622.99C2595.14 640.449 2593.49 657.437 2591.6 673.953C2590.19 689.997 2588.77 702.501 2587.36 711.467C2584.05 736.477 2581.46 759.835 2579.57 781.541C2577.68 803.248 2576.74 821.651 2576.74 836.751C2576.74 854.683 2578.39 869.783 2581.7 882.052C2585.47 894.32 2591.84 904.466 2600.81 912.488C2606.94 918.15 2610.01 924.521 2610.01 931.599C2610.01 942.924 2604.11 953.069 2592.31 962.035C2580.99 970.529 2565.89 974.776 2547.01 974.776ZM2784.02 976.899C2760.89 976.899 2739.42 973.596 2719.6 966.99C2700.26 959.912 2684.68 950.238 2672.89 937.969C2661.09 925.7 2655.19 911.308 2655.19 894.792C2655.19 883.939 2657.79 874.502 2662.98 866.48C2668.17 857.986 2675.25 853.739 2684.21 853.739C2689.88 853.739 2695.77 855.862 2701.91 860.109C2713.71 870.491 2728.81 879.692 2747.21 887.714C2766.08 895.264 2786.14 899.039 2807.37 899.039C2835.21 899.039 2857.86 893.613 2875.32 882.759C2893.26 871.434 2902.22 856.334 2902.22 837.459C2902.22 819.528 2893.96 806.551 2877.45 798.529C2860.93 790.507 2838.05 782.957 2808.79 775.879C2787.08 770.688 2766.08 764.082 2745.79 756.06C2725.97 748.038 2709.46 736.949 2696.25 722.792C2683.51 708.164 2677.13 688.817 2677.13 664.751C2677.13 646.348 2681.15 628.18 2689.17 610.249C2697.19 591.846 2708.99 575.094 2724.56 559.994C2740.13 544.894 2759.01 532.861 2781.18 523.895C2803.36 514.457 2828.37 509.739 2856.21 509.739C2876.98 509.739 2895.85 512.098 2912.84 516.817C2930.3 521.536 2943.98 528.142 2953.89 536.636C2964.27 545.13 2969.46 555.511 2969.46 567.78C2969.46 577.217 2966.87 585.475 2961.68 592.553C2956.49 599.632 2950.35 605.294 2943.27 609.541C2936.2 613.316 2930.06 615.204 2924.87 615.204C2920.15 615.204 2913.78 613.08 2905.76 608.833C2892.55 601.755 2877.68 596.329 2861.17 592.553C2845.12 588.307 2830.97 586.183 2818.7 586.183C2795.58 586.183 2776.7 591.374 2762.07 601.755C2747.92 611.665 2740.84 623.462 2740.84 637.146C2740.84 652.246 2749.8 664.987 2767.74 675.368C2786.14 685.278 2818.93 695.895 2866.12 707.22C2898.21 715.714 2923.22 727.511 2941.15 742.611C2959.08 757.239 2968.05 780.598 2968.05 812.685C2968.05 841.47 2960.26 868.367 2944.69 893.377C2929.59 918.386 2908.12 938.677 2880.28 954.249C2852.91 969.349 2820.82 976.899 2784.02 976.899ZM3167.75 976.899C3122.92 976.899 3089.66 969.821 3067.95 955.665C3046.72 941.037 3036.1 913.903 3036.1 874.266C3036.1 866.244 3036.57 856.57 3037.51 845.245C3038.93 833.92 3040.82 820.235 3043.18 804.191C3046.95 781.069 3049.78 760.543 3051.67 742.611C3053.56 724.208 3054.5 704.153 3054.5 682.447C3054.5 668.29 3054.03 654.606 3053.09 641.393C3052.61 628.18 3051.43 615.676 3049.55 603.879C3042.47 605.294 3037.75 606.002 3035.39 606.002C3031.62 606.002 3029.02 605.294 3027.6 603.879C3026.19 601.991 3025.48 598.688 3025.48 593.969C3025.48 584.06 3026.66 574.386 3029.02 564.949C3031.38 555.039 3034.68 547.017 3038.93 540.883C3046.95 529.558 3059.22 522.951 3075.74 521.064C3088.48 519.648 3104.05 518.232 3122.45 516.817C3141.33 515.401 3160.44 514.457 3179.79 513.986C3199.6 513.042 3217.3 512.57 3232.87 512.57C3276.29 512.57 3302 513.514 3310.02 515.401C3322.29 517.289 3328.43 523.895 3328.43 535.22C3328.43 549.377 3323.47 562.353 3313.56 574.15C3308.37 581.228 3303.18 586.419 3297.99 589.722C3292.8 592.553 3285.49 593.733 3276.05 593.261C3255.29 591.846 3237.12 590.902 3221.55 590.43C3205.98 589.958 3195.12 589.722 3188.99 589.722C3178.13 589.722 3166.81 589.958 3155.01 590.43C3143.69 590.902 3132.13 591.61 3120.33 592.553C3120.33 609.069 3119.62 626.765 3118.21 645.64C3116.79 664.515 3114.9 684.334 3112.54 705.097C3134.25 703.681 3158.79 702.737 3186.16 702.265C3213.53 701.322 3237.83 700.85 3259.06 700.85C3268.5 700.85 3274.87 701.794 3278.17 703.681C3281.95 705.569 3283.84 710.523 3283.84 718.545C3283.84 726.095 3281.71 734.589 3277.46 744.027C3273.69 752.993 3268.5 760.779 3261.89 767.385C3259.06 770.216 3255.99 772.576 3252.69 774.463C3249.39 775.879 3244.91 776.351 3239.24 775.879C3218.95 774.935 3195.83 774.227 3169.88 773.755C3144.39 773.283 3121.98 773.283 3102.63 773.755C3100.75 784.608 3099.33 794.518 3098.39 803.484C3097.44 812.449 3096.97 820.471 3096.97 827.55C3096.97 853.503 3103.58 871.67 3116.79 882.052C3130 892.433 3151.71 897.624 3181.91 897.624C3200.31 897.624 3218.01 895.972 3235 892.669C3252.46 889.366 3270.15 883.231 3288.08 874.266C3294.69 870.491 3299.64 868.603 3302.95 868.603C3308.14 868.603 3313.09 872.378 3317.81 879.928C3323 887.006 3325.6 894.792 3325.6 903.286C3325.6 913.668 3321.59 923.577 3313.56 933.015C3306.01 941.98 3295.87 949.766 3283.13 956.373C3268.5 962.979 3251.04 967.934 3230.75 971.237C3210.46 975.012 3189.46 976.899 3167.75 976.899ZM3742.09 976.899C3708.58 976.899 3679.09 969.349 3653.61 954.249C3628.6 939.149 3609.25 917.679 3595.57 889.838C3581.88 861.997 3575.04 828.965 3575.04 790.743C3575.04 754.408 3580.94 719.489 3592.74 685.986C3604.53 652.482 3621.52 622.518 3643.7 596.093C3665.88 569.667 3692.54 548.669 3723.68 533.097C3754.83 517.525 3789.98 509.739 3829.15 509.739C3858.41 509.739 3882.47 514.221 3901.35 523.187C3920.22 532.153 3929.66 545.366 3929.66 562.825C3929.66 571.319 3927.3 579.813 3922.58 588.307C3918.33 596.329 3912.67 603.171 3905.59 608.833C3898.52 614.496 3891.2 617.327 3883.65 617.327C3878.93 617.327 3875.16 616.147 3872.33 613.788C3859.59 605.294 3847.08 599.16 3834.81 595.385C3822.54 591.138 3808.39 589.014 3792.34 589.014C3758.84 589.014 3730.53 596.8 3707.4 612.372C3684.28 627.473 3666.59 647.527 3654.32 672.537C3642.52 697.547 3636.62 724.68 3636.62 753.936C3636.62 782.249 3642.05 807.259 3652.9 828.965C3663.76 850.672 3678.86 867.659 3698.2 879.928C3717.55 892.197 3740.2 898.331 3766.15 898.331C3786.92 898.331 3806.97 894.32 3826.32 886.299C3846.14 877.805 3863.6 866.244 3878.7 851.615C3885.3 845.481 3891.91 842.414 3898.52 842.414C3904.18 842.414 3908.19 844.773 3910.55 849.492C3912.91 854.211 3914.09 858.93 3914.09 863.648C3914.09 871.67 3911.73 880.872 3907.01 891.253C3902.29 901.163 3894.98 911.072 3885.07 920.982C3867.61 938.441 3846.14 952.126 3820.66 962.035C3795.17 971.945 3768.98 976.899 3742.09 976.899ZM4132.53 976.899C4083.93 976.899 4045 962.743 4015.74 934.43C3986.96 905.646 3972.57 863.412 3972.57 807.731C3972.57 782.721 3975.87 756.768 3982.48 729.87C3989.55 702.973 4001.11 676.312 4017.16 649.887C4008.19 657.909 3999.7 661.92 3991.68 661.92C3977.99 661.92 3971.15 651.067 3971.15 629.36C3971.15 613.788 3974.45 601.283 3981.06 591.846C3987.67 582.408 3994.04 574.858 4000.17 569.195C4010.55 560.23 4023.76 551.264 4039.81 542.298C4055.85 532.861 4074.73 525.075 4096.43 518.94C4118.14 512.806 4142.44 509.739 4169.34 509.739C4232.57 509.739 4280 527.67 4311.61 563.533C4343.7 598.924 4359.74 648.235 4359.74 711.467C4359.74 748.746 4354.32 783.429 4343.46 815.517C4332.61 847.604 4317.04 875.681 4296.75 899.747C4276.93 923.813 4253.1 942.688 4225.26 956.373C4197.42 970.057 4166.51 976.899 4132.53 976.899ZM4157.31 897.624C4180.9 897.624 4204.02 892.197 4226.67 881.344C4249.79 870.491 4268.67 853.267 4283.3 829.673C4298.4 805.607 4305.95 774.463 4305.95 736.241C4305.95 700.378 4299.11 671.829 4285.42 650.595C4271.74 628.888 4254.28 613.316 4233.04 603.879C4212.28 593.969 4190.34 589.014 4167.22 589.014C4149.76 589.014 4133.95 591.374 4119.79 596.093C4106.11 600.339 4093.84 605.058 4082.99 610.249C4070.72 629.124 4059.16 652.246 4048.3 679.615C4037.45 706.512 4032.02 735.061 4032.02 765.261C4032.02 795.462 4037.92 820.471 4049.72 840.29C4061.52 859.637 4076.85 874.03 4095.73 883.467C4115.07 892.905 4135.6 897.624 4157.31 897.624ZM4532.27 976.899C4514.81 976.899 4498.76 975.248 4484.14 971.945C4469.51 968.642 4457.48 962.507 4448.04 953.541C4440.96 946.935 4436.24 939.621 4433.88 931.599C4431.52 923.105 4430.34 913.903 4430.34 903.994C4430.34 887.95 4431.76 871.906 4434.59 855.862C4438.84 828.021 4442.61 798.057 4445.91 765.969C4449.22 733.881 4450.87 704.153 4450.87 676.784C4450.87 668.29 4450.4 658.617 4449.45 647.763C4448.98 636.91 4448.04 626.765 4446.62 617.327C4443.32 618.743 4440.02 620.158 4436.71 621.574C4433.88 622.518 4431.29 622.99 4428.93 622.99C4424.68 622.99 4421.85 620.866 4420.43 616.619C4419.02 612.372 4418.31 607.654 4418.31 602.463C4418.31 588.778 4421.38 577.217 4427.51 567.78C4434.12 557.87 4444.73 549.141 4459.36 541.59C4474.93 533.097 4495.23 525.783 4520.24 519.648C4545.72 513.042 4571.43 509.739 4597.39 509.739C4656.37 509.739 4702.62 527.198 4736.12 562.117C4770.1 596.564 4787.08 645.64 4787.08 709.344C4787.08 745.678 4781.42 780.126 4770.1 812.685C4759.24 844.773 4742.96 873.322 4721.26 898.331C4699.55 922.869 4672.89 942.216 4641.27 956.373C4609.66 970.057 4573.32 976.899 4532.27 976.899ZM4554.92 897.624C4576.15 897.624 4597.39 894.32 4618.62 887.714C4639.86 881.108 4658.97 871.198 4675.96 857.986C4693.42 844.773 4707.34 828.021 4717.72 807.731C4728.1 786.968 4733.29 762.194 4733.29 733.41C4733.29 700.85 4726.92 673.953 4714.18 652.718C4701.44 631.484 4684.45 615.676 4663.21 605.294C4641.98 594.913 4618.39 589.722 4592.43 589.722C4578.28 589.722 4564.12 590.902 4549.96 593.261C4536.28 595.621 4525.43 597.98 4517.4 600.339C4516.93 622.046 4515.52 643.281 4513.16 664.043C4511.27 684.334 4508.91 704.153 4506.08 723.5C4503.25 743.791 4500.89 763.61 4499 782.957C4497.59 802.304 4496.88 821.415 4496.88 840.29C4496.88 863.884 4501.6 879.456 4511.03 887.006C4520.94 894.085 4535.57 897.624 4554.92 897.624ZM4987.76 976.899C4942.93 976.899 4909.67 969.821 4887.96 955.665C4866.72 941.037 4856.11 913.903 4856.11 874.266C4856.11 866.244 4856.58 856.57 4857.52 845.245C4858.94 833.92 4860.83 820.235 4863.18 804.191C4866.96 781.069 4869.79 760.543 4871.68 742.611C4873.57 724.208 4874.51 704.153 4874.51 682.447C4874.51 668.29 4874.04 654.606 4873.09 641.393C4872.62 628.18 4871.44 615.676 4869.56 603.879C4862.48 605.294 4857.76 606.002 4855.4 606.002C4851.62 606.002 4849.03 605.294 4847.61 603.879C4846.2 601.991 4845.49 598.688 4845.49 593.969C4845.49 584.06 4846.67 574.386 4849.03 564.949C4851.39 555.039 4854.69 547.017 4858.94 540.883C4866.96 529.558 4879.23 522.951 4895.74 521.064C4908.49 519.648 4924.06 518.232 4942.46 516.817C4961.34 515.401 4980.45 514.457 4999.79 513.986C5019.61 513.042 5037.31 512.57 5052.88 512.57C5096.29 512.57 5122.01 513.514 5130.03 515.401C5142.3 517.289 5148.44 523.895 5148.44 535.22C5148.44 549.377 5143.48 562.353 5133.57 574.15C5128.38 581.228 5123.19 586.419 5118 589.722C5112.81 592.553 5105.5 593.733 5096.06 593.261C5075.29 591.846 5057.13 590.902 5041.56 590.43C5025.98 589.958 5015.13 589.722 5009 589.722C4998.14 589.722 4986.82 589.958 4975.02 590.43C4963.7 590.902 4952.13 591.61 4940.34 592.553C4940.34 609.069 4939.63 626.765 4938.21 645.64C4936.8 664.515 4934.91 684.334 4932.55 705.097C4954.26 703.681 4978.8 702.737 5006.16 702.265C5033.53 701.322 5057.84 700.85 5079.07 700.85C5088.51 700.85 5094.88 701.794 5098.18 703.681C5101.96 705.569 5103.84 710.523 5103.84 718.545C5103.84 726.095 5101.72 734.589 5097.47 744.027C5093.7 752.993 5088.51 760.779 5081.9 767.385C5079.07 770.216 5076 772.576 5072.7 774.463C5069.4 775.879 5064.91 776.351 5059.25 775.879C5038.96 774.935 5015.84 774.227 4989.88 773.755C4964.4 773.283 4941.99 773.283 4922.64 773.755C4920.75 784.608 4919.34 794.518 4918.39 803.484C4917.45 812.449 4916.98 820.471 4916.98 827.55C4916.98 853.503 4923.59 871.67 4936.8 882.052C4950.01 892.433 4971.72 897.624 5001.92 897.624C5020.32 897.624 5038.02 895.972 5055 892.669C5072.46 889.366 5090.16 883.231 5108.09 874.266C5114.7 870.491 5119.65 868.603 5122.95 868.603C5128.15 868.603 5133.1 872.378 5137.82 879.928C5143.01 887.006 5145.6 894.792 5145.6 903.286C5145.6 913.668 5141.59 923.577 5133.57 933.015C5126.02 941.98 5115.88 949.766 5103.14 956.373C5088.51 962.979 5071.05 967.934 5050.76 971.237C5030.47 975.012 5009.47 976.899 4987.76 976.899Z" fill="#2C494C"/>
<path d="M2805.14 1252.7C2796.64 1252.7 2790.55 1250.7 2786.86 1246.71C2783.17 1242.61 2781.33 1237.23 2781.33 1230.58C2781.33 1228.83 2781.49 1226.74 2781.79 1224.28C2782.1 1221.82 2782.51 1218.85 2783.02 1215.37C2783.84 1210.35 2784.46 1205.89 2784.86 1202C2785.27 1198.01 2785.48 1193.65 2785.48 1188.94C2785.48 1183.51 2785.33 1179.11 2785.02 1175.73C2783.28 1176.75 2782 1177.27 2781.18 1177.27C2779.54 1177.27 2778.72 1175.42 2778.72 1171.74C2778.72 1168.87 2779.33 1166.46 2780.56 1164.52C2781.89 1162.47 2784.05 1160.57 2787.02 1158.83C2789.99 1156.99 2793.72 1155.4 2798.23 1154.07C2802.84 1152.74 2807.76 1152.07 2812.98 1152.07C2821.48 1152.07 2827.93 1154.02 2832.34 1157.91C2836.74 1161.8 2838.94 1166.92 2838.94 1173.27C2838.94 1177.37 2838.07 1181.16 2836.33 1184.64C2834.59 1188.12 2832.13 1191.2 2828.96 1193.86C2841.76 1195.91 2848.16 1203.28 2848.16 1215.98C2848.16 1222.84 2846.21 1229.09 2842.32 1234.72C2838.43 1240.36 2833.16 1244.76 2826.5 1247.94C2820.05 1251.11 2812.93 1252.7 2805.14 1252.7ZM2811.29 1235.65C2815.9 1235.65 2820.05 1235.03 2823.73 1233.8C2827.52 1232.47 2830.54 1230.58 2832.8 1228.12C2835.05 1225.66 2836.18 1222.79 2836.18 1219.51C2836.18 1215.32 2834.69 1212.35 2831.72 1210.6C2828.75 1208.86 2825.32 1207.99 2821.43 1207.99C2819.79 1207.99 2817.74 1208.15 2815.28 1208.45C2814.26 1208.66 2813.08 1208.76 2811.75 1208.76C2809.5 1208.76 2807.6 1207.84 2806.07 1206C2804.63 1204.15 2803.91 1201.85 2803.91 1199.08C2803.91 1197.14 2804.79 1195.91 2806.53 1195.4C2819.02 1192.12 2825.27 1186.43 2825.27 1178.34C2825.27 1171.89 2820.81 1168.66 2811.9 1168.66C2808.63 1168.66 2804.58 1169.23 2799.77 1170.35C2799.77 1175.37 2799.51 1180.65 2799 1186.18C2798.49 1191.61 2797.72 1197.29 2796.69 1203.23C2796.08 1207.33 2795.57 1210.81 2795.16 1213.68C2794.85 1216.44 2794.7 1218.7 2794.7 1220.44C2794.7 1225.97 2796.08 1229.91 2798.85 1232.27C2801.61 1234.52 2805.76 1235.65 2811.29 1235.65ZM2871.99 1252.39C2870.76 1252.39 2869.48 1252.19 2868.14 1251.78C2866.92 1251.37 2865.89 1250.39 2865.07 1248.86C2864.25 1247.32 2863.84 1244.97 2863.84 1241.79C2863.84 1239.74 2864 1237.13 2864.3 1233.96C2864.71 1230.68 2865.12 1227.5 2865.53 1224.43C2866.35 1219.31 2867.07 1213.68 2867.68 1207.53C2868.4 1201.39 2868.76 1195.29 2868.76 1189.25C2868.76 1187.1 2868.71 1184.85 2868.61 1182.49C2868.5 1180.13 2868.3 1177.88 2867.99 1175.73C2867.38 1176.04 2866.66 1176.35 2865.84 1176.65C2865.12 1176.86 2864.51 1176.96 2864 1176.96C2862.97 1176.96 2862.26 1176.45 2861.85 1175.42C2861.54 1174.3 2861.38 1173.02 2861.38 1171.58C2861.38 1168.31 2862.15 1165.69 2863.69 1163.75C2865.33 1161.7 2867.73 1159.86 2870.91 1158.22C2875.11 1155.86 2879.56 1154.17 2884.28 1153.15C2889.09 1152.02 2893.65 1151.46 2897.95 1151.46C2904.3 1151.46 2909.93 1152.58 2914.85 1154.84C2919.76 1157.09 2923.6 1160.27 2926.37 1164.36C2929.13 1168.46 2930.52 1173.38 2930.52 1179.11C2930.52 1185.05 2929.08 1190.33 2926.22 1194.93C2923.45 1199.54 2919.87 1203.33 2915.46 1206.3C2911.16 1209.17 2906.76 1211.07 2902.25 1211.99C2903.89 1214.55 2905.63 1217.11 2907.47 1219.67C2909.42 1222.23 2911.37 1224.53 2913.31 1226.58C2919.15 1232.62 2925.09 1235.65 2931.13 1235.65C2932.77 1235.65 2934.2 1235.54 2935.43 1235.34C2936.05 1235.24 2936.56 1235.49 2936.97 1236.11C2937.48 1236.62 2937.74 1237.69 2937.74 1239.33C2937.74 1241.28 2937.33 1243.28 2936.51 1245.32C2935.69 1247.27 2934.31 1248.91 2932.36 1250.24C2930.42 1251.57 2927.75 1252.24 2924.37 1252.24C2920.38 1252.24 2916.54 1250.91 2912.85 1248.24C2909.27 1245.58 2905.94 1242.2 2902.86 1238.1C2899.79 1233.9 2897.03 1229.5 2894.57 1224.89C2892.21 1220.28 2890.22 1216.03 2888.58 1212.14C2888.17 1211.01 2887.81 1209.94 2887.5 1208.91C2887.19 1207.79 2887.04 1206.71 2887.04 1205.69C2887.04 1203.95 2887.6 1202.51 2888.73 1201.39C2889.55 1200.57 2890.68 1200 2892.11 1199.7C2893.65 1199.39 2895.85 1199.24 2898.72 1199.24C2904.14 1199.24 2908.55 1197.75 2911.93 1194.78C2915.31 1191.81 2917 1187.97 2917 1183.26C2917 1178.14 2915.05 1174.4 2911.16 1172.04C2907.37 1169.69 2902.71 1168.51 2897.18 1168.51C2892.67 1168.51 2887.96 1169.23 2883.05 1170.66C2882.74 1177.32 2882.02 1184.95 2880.9 1193.55C2880.28 1198.67 2879.72 1203.74 2879.21 1208.76C2878.8 1213.78 2878.59 1218.34 2878.59 1222.43C2878.59 1226.02 2878.9 1229.19 2879.51 1231.96C2880.23 1234.62 2881.61 1236.93 2883.66 1238.87C2885.09 1240.31 2885.81 1241.84 2885.81 1243.48C2885.81 1245.73 2884.53 1247.78 2881.97 1249.63C2879.41 1251.47 2876.08 1252.39 2871.99 1252.39ZM2958.57 1252.39C2956.11 1252.39 2954.12 1251.73 2952.58 1250.39C2951.05 1249.06 2950.28 1246.35 2950.28 1242.25C2950.28 1240.2 2950.48 1237.54 2950.89 1234.26C2951.3 1230.99 2951.71 1227.71 2952.12 1224.43C2953.25 1217.16 2954.07 1210.86 2954.58 1205.53C2955.09 1200.21 2955.35 1194.78 2955.35 1189.25C2955.35 1184.13 2955.04 1179.37 2954.42 1174.96C2953.91 1170.56 2952.53 1166.77 2950.28 1163.59C2949.46 1162.26 2949.05 1161.24 2949.05 1160.52C2949.05 1159.29 2949.71 1158.01 2951.05 1156.68C2952.48 1155.25 2954.17 1154.07 2956.11 1153.15C2958.16 1152.23 2960.06 1151.76 2961.8 1151.76C2964.97 1151.76 2967.07 1153.2 2968.1 1156.07C2969.22 1158.83 2969.79 1162.31 2969.79 1166.51C2969.79 1169.07 2969.63 1172.25 2969.33 1176.04C2969.02 1179.83 2968.66 1183.51 2968.25 1187.1C2967.94 1190.58 2967.64 1193.3 2967.33 1195.24C2966.61 1200.67 2966.05 1205.74 2965.64 1210.45C2965.23 1215.16 2965.03 1219.16 2965.03 1222.43C2965.03 1226.33 2965.38 1229.6 2966.1 1232.27C2966.92 1234.93 2968.3 1237.13 2970.25 1238.87C2971.58 1240.1 2972.25 1241.48 2972.25 1243.02C2972.25 1245.48 2970.97 1247.68 2968.4 1249.63C2965.95 1251.47 2962.67 1252.39 2958.57 1252.39ZM2995.11 1252.39C2992.86 1252.39 2990.91 1251.83 2989.27 1250.7C2987.74 1249.47 2986.97 1246.66 2986.97 1242.25C2986.97 1240 2987.17 1237.28 2987.58 1234.11C2988.1 1230.83 2988.61 1227.45 2989.12 1223.97C2989.94 1219.05 2990.76 1213.68 2991.58 1207.84C2992.4 1201.9 2992.81 1196.01 2992.81 1190.17C2992.81 1184.03 2992.6 1179.32 2992.19 1176.04C2991.78 1172.76 2991.32 1170.1 2990.81 1168.05C2990.6 1166.92 2990.4 1165.9 2990.19 1164.98C2990.09 1164.06 2990.04 1163.03 2990.04 1161.9C2990.04 1158.63 2991.07 1156.17 2993.11 1154.53C2995.26 1152.79 2997.62 1151.92 3000.18 1151.92C3002.74 1151.92 3004.89 1152.58 3006.63 1153.92C3008.37 1155.14 3009.91 1156.48 3011.24 1157.91C3020.05 1167.84 3027.99 1178.29 3035.05 1189.25C3042.12 1200.11 3048.01 1211.27 3052.72 1222.74C3053.23 1223.56 3053.69 1223.97 3054.1 1223.97C3054.72 1223.97 3055.13 1223.56 3055.33 1222.74C3057.18 1210.76 3058.1 1199.9 3058.1 1190.17C3058.1 1184.33 3057.84 1179.73 3057.33 1176.35C3056.92 1172.86 3056.36 1170.2 3055.64 1168.36C3055.03 1166.41 3054.41 1164.87 3053.8 1163.75C3053.49 1163.03 3053.23 1162.42 3053.03 1161.9C3052.82 1161.29 3052.72 1160.73 3052.72 1160.21C3052.72 1158.99 3053.34 1157.76 3054.57 1156.53C3055.9 1155.2 3057.48 1154.12 3059.33 1153.3C3061.17 1152.48 3062.96 1152.07 3064.7 1152.07C3067.16 1152.07 3068.96 1152.89 3070.08 1154.53C3071.21 1156.17 3071.93 1158.22 3072.23 1160.68C3072.64 1163.03 3072.85 1165.44 3072.85 1167.9C3072.85 1170.66 3072.59 1174.25 3072.08 1178.65C3071.57 1183.05 3070.95 1187.82 3070.24 1192.94C3069.62 1197.96 3069.06 1202.92 3068.55 1207.84C3068.14 1212.76 3067.93 1217.11 3067.93 1220.9C3067.93 1223.05 3067.98 1225.15 3068.08 1227.2C3068.29 1229.24 3068.49 1231.24 3068.7 1233.19C3069.01 1235.75 3069.16 1238 3069.16 1239.95C3069.16 1243.74 3068.19 1246.76 3066.24 1249.01C3064.4 1251.16 3061.84 1252.24 3058.56 1252.24C3056.31 1252.24 3054.05 1251.57 3051.8 1250.24C3049.65 1248.91 3048.01 1246.76 3046.88 1243.79C3042.48 1232.52 3037.05 1221.56 3030.6 1210.91C3024.25 1200.16 3017.59 1190.89 3010.63 1183.1C3009.5 1182.08 3008.58 1181.57 3007.86 1181.57C3006.84 1181.57 3006.17 1182.7 3005.87 1184.95C3005.35 1188.84 3004.84 1193.09 3004.33 1197.7C3003.82 1202.31 3003.41 1206.81 3003.1 1211.22C3002.79 1215.52 3002.64 1219.21 3002.64 1222.28C3002.64 1225.76 3002.95 1228.78 3003.56 1231.34C3004.18 1233.8 3005.1 1236.21 3006.33 1238.56C3007.45 1240.61 3008.02 1242.46 3008.02 1244.1C3008.02 1246.04 3006.89 1247.94 3004.64 1249.78C3002.38 1251.52 2999.21 1252.39 2995.11 1252.39ZM3123.77 1252.85C3116.7 1252.85 3110.35 1251.26 3104.72 1248.09C3099.08 1244.91 3094.63 1240.31 3091.35 1234.26C3088.07 1228.22 3086.43 1220.9 3086.43 1212.29C3086.43 1204.51 3087.71 1197.03 3090.27 1189.86C3092.94 1182.59 3096.68 1176.09 3101.49 1170.35C3106.3 1164.52 3112.14 1159.91 3119 1156.53C3125.86 1153.15 3133.49 1151.46 3141.89 1151.46C3148.04 1151.46 3153.16 1152.43 3157.26 1154.38C3161.35 1156.32 3163.4 1159.19 3163.4 1162.98C3163.4 1164.82 3162.89 1166.67 3161.86 1168.51C3160.94 1170.25 3159.71 1171.74 3158.18 1172.97C3156.64 1174.19 3155.05 1174.81 3153.42 1174.81C3152.39 1174.81 3151.57 1174.55 3150.96 1174.04C3145.63 1170.46 3139.59 1168.66 3132.83 1168.66C3125.66 1168.66 3119.62 1170.35 3114.7 1173.73C3109.78 1177.01 3106.05 1181.36 3103.49 1186.79C3101.03 1192.22 3099.8 1198.11 3099.8 1204.46C3099.8 1213.98 3102.46 1221.56 3107.79 1227.2C3113.22 1232.83 3120.44 1235.65 3129.45 1235.65C3133.34 1235.65 3136.98 1235.08 3140.36 1233.96C3143.74 1232.83 3146.5 1231.19 3148.65 1229.04C3150.8 1226.89 3151.88 1224.28 3151.88 1221.2C3151.88 1218.13 3150.96 1215.78 3149.11 1214.14C3147.27 1212.5 3144.86 1211.32 3141.89 1210.6C3138.92 1209.79 3135.7 1209.27 3132.21 1209.07C3129.76 1208.86 3127.91 1208.56 3126.68 1208.15C3125.56 1207.74 3124.99 1206.51 3124.99 1204.46C3124.99 1202 3125.76 1199.95 3127.3 1198.31C3128.83 1196.68 3130.73 1195.75 3132.98 1195.55C3136.06 1195.24 3139.74 1195.04 3144.04 1194.93C3148.35 1194.73 3152.8 1194.63 3157.41 1194.63C3162.12 1194.52 3166.52 1194.47 3170.62 1194.47C3171.95 1194.47 3172.98 1194.73 3173.69 1195.24C3174.41 1195.65 3174.77 1196.57 3174.77 1198.01C3174.77 1199.75 3174.36 1201.64 3173.54 1203.69C3172.82 1205.74 3171.8 1207.48 3170.47 1208.91C3169.14 1210.35 3167.6 1211.07 3165.86 1211.07H3163.4C3163.71 1212.09 3163.96 1213.27 3164.17 1214.6C3164.48 1215.83 3164.63 1217.26 3164.63 1218.9C3164.63 1223.41 3163.55 1227.71 3161.4 1231.81C3159.25 1235.8 3156.28 1239.38 3152.49 1242.56C3148.7 1245.73 3144.35 1248.24 3139.44 1250.09C3134.52 1251.93 3129.3 1252.85 3123.77 1252.85ZM3196.07 1252.39C3193.61 1252.39 3191.61 1251.73 3190.07 1250.39C3188.54 1249.06 3187.77 1246.35 3187.77 1242.25C3187.77 1240.2 3187.98 1237.54 3188.38 1234.26C3188.79 1230.99 3189.2 1227.71 3189.61 1224.43C3190.74 1217.16 3191.56 1210.86 3192.07 1205.53C3192.58 1200.21 3192.84 1194.78 3192.84 1189.25C3192.84 1184.13 3192.53 1179.37 3191.92 1174.96C3191.41 1170.56 3190.02 1166.77 3187.77 1163.59C3186.95 1162.26 3186.54 1161.24 3186.54 1160.52C3186.54 1159.29 3187.21 1158.01 3188.54 1156.68C3189.97 1155.25 3191.66 1154.07 3193.61 1153.15C3195.66 1152.23 3197.55 1151.76 3199.29 1151.76C3202.47 1151.76 3204.57 1153.2 3205.59 1156.07C3206.72 1158.83 3207.28 1162.31 3207.28 1166.51C3207.28 1169.07 3207.13 1172.25 3206.82 1176.04C3206.51 1179.83 3206.15 1183.51 3205.74 1187.1C3205.44 1190.58 3205.13 1193.3 3204.82 1195.24C3204.11 1200.67 3203.54 1205.74 3203.13 1210.45C3202.72 1215.16 3202.52 1219.16 3202.52 1222.43C3202.52 1226.33 3202.88 1229.6 3203.59 1232.27C3204.41 1234.93 3205.8 1237.13 3207.74 1238.87C3209.07 1240.1 3209.74 1241.48 3209.74 1243.02C3209.74 1245.48 3208.46 1247.68 3205.9 1249.63C3203.44 1251.47 3200.16 1252.39 3196.07 1252.39ZM3232.6 1252.39C3230.35 1252.39 3228.41 1251.83 3226.77 1250.7C3225.23 1249.47 3224.46 1246.66 3224.46 1242.25C3224.46 1240 3224.67 1237.28 3225.08 1234.11C3225.59 1230.83 3226.1 1227.45 3226.61 1223.97C3227.43 1219.05 3228.25 1213.68 3229.07 1207.84C3229.89 1201.9 3230.3 1196.01 3230.3 1190.17C3230.3 1184.03 3230.1 1179.32 3229.69 1176.04C3229.28 1172.76 3228.82 1170.1 3228.3 1168.05C3228.1 1166.92 3227.89 1165.9 3227.69 1164.98C3227.59 1164.06 3227.53 1163.03 3227.53 1161.9C3227.53 1158.63 3228.56 1156.17 3230.61 1154.53C3232.76 1152.79 3235.11 1151.92 3237.67 1151.92C3240.23 1151.92 3242.39 1152.58 3244.13 1153.92C3245.87 1155.14 3247.4 1156.48 3248.74 1157.91C3257.54 1167.84 3265.48 1178.29 3272.55 1189.25C3279.61 1200.11 3285.5 1211.27 3290.22 1222.74C3290.73 1223.56 3291.19 1223.97 3291.6 1223.97C3292.21 1223.97 3292.62 1223.56 3292.83 1222.74C3294.67 1210.76 3295.59 1199.9 3295.59 1190.17C3295.59 1184.33 3295.34 1179.73 3294.82 1176.35C3294.41 1172.86 3293.85 1170.2 3293.13 1168.36C3292.52 1166.41 3291.91 1164.87 3291.29 1163.75C3290.98 1163.03 3290.73 1162.42 3290.52 1161.9C3290.32 1161.29 3290.22 1160.73 3290.22 1160.21C3290.22 1158.99 3290.83 1157.76 3292.06 1156.53C3293.39 1155.2 3294.98 1154.12 3296.82 1153.3C3298.66 1152.48 3300.46 1152.07 3302.2 1152.07C3304.66 1152.07 3306.45 1152.89 3307.58 1154.53C3308.7 1156.17 3309.42 1158.22 3309.73 1160.68C3310.14 1163.03 3310.34 1165.44 3310.34 1167.9C3310.34 1170.66 3310.08 1174.25 3309.57 1178.65C3309.06 1183.05 3308.45 1187.82 3307.73 1192.94C3307.11 1197.96 3306.55 1202.92 3306.04 1207.84C3305.63 1212.76 3305.42 1217.11 3305.42 1220.9C3305.42 1223.05 3305.48 1225.15 3305.58 1227.2C3305.78 1229.24 3305.99 1231.24 3306.19 1233.19C3306.5 1235.75 3306.65 1238 3306.65 1239.95C3306.65 1243.74 3305.68 1246.76 3303.73 1249.01C3301.89 1251.16 3299.33 1252.24 3296.05 1252.24C3293.8 1252.24 3291.55 1251.57 3289.29 1250.24C3287.14 1248.91 3285.5 1246.76 3284.38 1243.79C3279.97 1232.52 3274.55 1221.56 3268.09 1210.91C3261.74 1200.16 3255.09 1190.89 3248.12 1183.1C3246.99 1182.08 3246.07 1181.57 3245.36 1181.57C3244.33 1181.57 3243.67 1182.7 3243.36 1184.95C3242.85 1188.84 3242.33 1193.09 3241.82 1197.7C3241.31 1202.31 3240.9 1206.81 3240.59 1211.22C3240.29 1215.52 3240.13 1219.21 3240.13 1222.28C3240.13 1225.76 3240.44 1228.78 3241.05 1231.34C3241.67 1233.8 3242.59 1236.21 3243.82 1238.56C3244.95 1240.61 3245.51 1242.46 3245.51 1244.1C3245.51 1246.04 3244.38 1247.94 3242.13 1249.78C3239.88 1251.52 3236.7 1252.39 3232.6 1252.39ZM3361.26 1252.85C3354.19 1252.85 3347.84 1251.26 3342.21 1248.09C3336.58 1244.91 3332.12 1240.31 3328.84 1234.26C3325.57 1228.22 3323.93 1220.9 3323.93 1212.29C3323.93 1204.51 3325.21 1197.03 3327.77 1189.86C3330.43 1182.59 3334.17 1176.09 3338.98 1170.35C3343.8 1164.52 3349.63 1159.91 3356.5 1156.53C3363.36 1153.15 3370.99 1151.46 3379.39 1151.46C3385.53 1151.46 3390.65 1152.43 3394.75 1154.38C3398.85 1156.32 3400.89 1159.19 3400.89 1162.98C3400.89 1164.82 3400.38 1166.67 3399.36 1168.51C3398.44 1170.25 3397.21 1171.74 3395.67 1172.97C3394.14 1174.19 3392.55 1174.81 3390.91 1174.81C3389.88 1174.81 3389.07 1174.55 3388.45 1174.04C3383.13 1170.46 3377.08 1168.66 3370.32 1168.66C3363.15 1168.66 3357.11 1170.35 3352.19 1173.73C3347.28 1177.01 3343.54 1181.36 3340.98 1186.79C3338.52 1192.22 3337.29 1198.11 3337.29 1204.46C3337.29 1213.98 3339.96 1221.56 3345.28 1227.2C3350.71 1232.83 3357.93 1235.65 3366.94 1235.65C3370.83 1235.65 3374.47 1235.08 3377.85 1233.96C3381.23 1232.83 3384 1231.19 3386.15 1229.04C3388.3 1226.89 3389.37 1224.28 3389.37 1221.2C3389.37 1218.13 3388.45 1215.78 3386.61 1214.14C3384.76 1212.5 3382.36 1211.32 3379.39 1210.6C3376.42 1209.79 3373.19 1209.27 3369.71 1209.07C3367.25 1208.86 3365.41 1208.56 3364.18 1208.15C3363.05 1207.74 3362.49 1206.51 3362.49 1204.46C3362.49 1202 3363.26 1199.95 3364.79 1198.31C3366.33 1196.68 3368.22 1195.75 3370.48 1195.55C3373.55 1195.24 3377.24 1195.04 3381.54 1194.93C3385.84 1194.73 3390.29 1194.63 3394.9 1194.63C3399.61 1194.52 3404.02 1194.47 3408.12 1194.47C3409.45 1194.47 3410.47 1194.73 3411.19 1195.24C3411.9 1195.65 3412.26 1196.57 3412.26 1198.01C3412.26 1199.75 3411.85 1201.64 3411.03 1203.69C3410.32 1205.74 3409.29 1207.48 3407.96 1208.91C3406.63 1210.35 3405.09 1211.07 3403.35 1211.07H3400.89C3401.2 1212.09 3401.46 1213.27 3401.66 1214.6C3401.97 1215.83 3402.12 1217.26 3402.12 1218.9C3402.12 1223.41 3401.05 1227.71 3398.9 1231.81C3396.75 1235.8 3393.78 1239.38 3389.99 1242.56C3386.2 1245.73 3381.84 1248.24 3376.93 1250.09C3372.01 1251.93 3366.79 1252.85 3361.26 1252.85ZM3488.18 1252.85C3484.39 1252.85 3480.91 1252.49 3477.73 1251.78C3474.56 1251.06 3471.95 1249.73 3469.9 1247.78C3468.36 1246.35 3467.34 1244.76 3466.83 1243.02C3466.31 1241.18 3466.06 1239.18 3466.06 1237.03C3466.06 1233.55 3466.36 1230.06 3466.98 1226.58C3467.9 1220.54 3468.72 1214.04 3469.44 1207.07C3470.15 1200.11 3470.51 1193.65 3470.51 1187.71C3470.51 1185.87 3470.41 1183.77 3470.21 1181.42C3470.1 1179.06 3469.9 1176.86 3469.59 1174.81C3468.87 1175.12 3468.16 1175.42 3467.44 1175.73C3466.83 1175.94 3466.26 1176.04 3465.75 1176.04C3464.83 1176.04 3464.21 1175.58 3463.91 1174.66C3463.6 1173.73 3463.45 1172.71 3463.45 1171.58C3463.45 1168.61 3464.11 1166.1 3465.44 1164.06C3466.88 1161.9 3469.18 1160.01 3472.36 1158.37C3475.74 1156.53 3480.14 1154.94 3485.57 1153.61C3491.1 1152.17 3496.68 1151.46 3502.31 1151.46C3515.12 1151.46 3525.15 1155.25 3532.42 1162.83C3539.8 1170.3 3543.49 1180.95 3543.49 1194.78C3543.49 1202.67 3542.26 1210.14 3539.8 1217.21C3537.44 1224.17 3533.91 1230.37 3529.2 1235.8C3524.49 1241.13 3518.7 1245.32 3511.84 1248.4C3504.98 1251.37 3497.09 1252.85 3488.18 1252.85ZM3493.1 1235.65C3497.7 1235.65 3502.31 1234.93 3506.92 1233.49C3511.53 1232.06 3515.68 1229.91 3519.37 1227.04C3523.16 1224.17 3526.18 1220.54 3528.43 1216.14C3530.68 1211.63 3531.81 1206.25 3531.81 1200C3531.81 1192.94 3530.43 1187.1 3527.66 1182.49C3524.9 1177.88 3521.21 1174.45 3516.6 1172.2C3511.99 1169.94 3506.87 1168.82 3501.24 1168.82C3498.17 1168.82 3495.09 1169.07 3492.02 1169.59C3489.05 1170.1 3486.69 1170.61 3484.95 1171.12C3484.85 1175.83 3484.54 1180.44 3484.03 1184.95C3483.62 1189.35 3483.11 1193.65 3482.5 1197.85C3481.88 1202.26 3481.37 1206.56 3480.96 1210.76C3480.65 1214.96 3480.5 1219.11 3480.5 1223.2C3480.5 1228.32 3481.52 1231.7 3483.57 1233.34C3485.72 1234.88 3488.9 1235.65 3493.1 1235.65ZM3567.68 1252.39C3565.23 1252.39 3563.23 1251.73 3561.69 1250.39C3560.16 1249.06 3559.39 1246.35 3559.39 1242.25C3559.39 1240.2 3559.59 1237.54 3560 1234.26C3560.41 1230.99 3560.82 1227.71 3561.23 1224.43C3562.36 1217.16 3563.18 1210.86 3563.69 1205.53C3564.2 1200.21 3564.46 1194.78 3564.46 1189.25C3564.46 1184.13 3564.15 1179.37 3563.54 1174.96C3563.02 1170.56 3561.64 1166.77 3559.39 1163.59C3558.57 1162.26 3558.16 1161.24 3558.16 1160.52C3558.16 1159.29 3558.83 1158.01 3560.16 1156.68C3561.59 1155.25 3563.28 1154.07 3565.23 1153.15C3567.27 1152.23 3569.17 1151.76 3570.91 1151.76C3574.09 1151.76 3576.19 1153.2 3577.21 1156.07C3578.34 1158.83 3578.9 1162.31 3578.9 1166.51C3578.9 1169.07 3578.75 1172.25 3578.44 1176.04C3578.13 1179.83 3577.77 1183.51 3577.36 1187.1C3577.06 1190.58 3576.75 1193.3 3576.44 1195.24C3575.72 1200.67 3575.16 1205.74 3574.75 1210.45C3574.34 1215.16 3574.14 1219.16 3574.14 1222.43C3574.14 1226.33 3574.5 1229.6 3575.21 1232.27C3576.03 1234.93 3577.41 1237.13 3579.36 1238.87C3580.69 1240.1 3581.36 1241.48 3581.36 1243.02C3581.36 1245.48 3580.08 1247.68 3577.52 1249.63C3575.06 1251.47 3571.78 1252.39 3567.68 1252.39ZM3633.26 1252.85C3626.19 1252.85 3619.84 1251.26 3614.21 1248.09C3608.58 1244.91 3604.12 1240.31 3600.84 1234.26C3597.57 1228.22 3595.93 1220.9 3595.93 1212.29C3595.93 1204.51 3597.21 1197.03 3599.77 1189.86C3602.43 1182.59 3606.17 1176.09 3610.98 1170.35C3615.8 1164.52 3621.63 1159.91 3628.5 1156.53C3635.36 1153.15 3642.99 1151.46 3651.39 1151.46C3657.53 1151.46 3662.65 1152.43 3666.75 1154.38C3670.85 1156.32 3672.89 1159.19 3672.89 1162.98C3672.89 1164.82 3672.38 1166.67 3671.36 1168.51C3670.44 1170.25 3669.21 1171.74 3667.67 1172.97C3666.14 1174.19 3664.55 1174.81 3662.91 1174.81C3661.88 1174.81 3661.07 1174.55 3660.45 1174.04C3655.13 1170.46 3649.08 1168.66 3642.32 1168.66C3635.15 1168.66 3629.11 1170.35 3624.19 1173.73C3619.28 1177.01 3615.54 1181.36 3612.98 1186.79C3610.52 1192.22 3609.29 1198.11 3609.29 1204.46C3609.29 1213.98 3611.96 1221.56 3617.28 1227.2C3622.71 1232.83 3629.93 1235.65 3638.94 1235.65C3642.83 1235.65 3646.47 1235.08 3649.85 1233.96C3653.23 1232.83 3656 1231.19 3658.15 1229.04C3660.3 1226.89 3661.37 1224.28 3661.37 1221.2C3661.37 1218.13 3660.45 1215.78 3658.61 1214.14C3656.76 1212.5 3654.36 1211.32 3651.39 1210.6C3648.42 1209.79 3645.19 1209.27 3641.71 1209.07C3639.25 1208.86 3637.41 1208.56 3636.18 1208.15C3635.05 1207.74 3634.49 1206.51 3634.49 1204.46C3634.49 1202 3635.26 1199.95 3636.79 1198.31C3638.33 1196.68 3640.22 1195.75 3642.48 1195.55C3645.55 1195.24 3649.24 1195.04 3653.54 1194.93C3657.84 1194.73 3662.29 1194.63 3666.9 1194.63C3671.61 1194.52 3676.02 1194.47 3680.12 1194.47C3681.45 1194.47 3682.47 1194.73 3683.19 1195.24C3683.9 1195.65 3684.26 1196.57 3684.26 1198.01C3684.26 1199.75 3683.85 1201.64 3683.03 1203.69C3682.32 1205.74 3681.29 1207.48 3679.96 1208.91C3678.63 1210.35 3677.09 1211.07 3675.35 1211.07H3672.89C3673.2 1212.09 3673.46 1213.27 3673.66 1214.6C3673.97 1215.83 3674.12 1217.26 3674.12 1218.9C3674.12 1223.41 3673.05 1227.71 3670.9 1231.81C3668.75 1235.8 3665.78 1239.38 3661.99 1242.56C3658.2 1245.73 3653.84 1248.24 3648.93 1250.09C3644.01 1251.93 3638.79 1252.85 3633.26 1252.85ZM3705.56 1252.39C3703.1 1252.39 3701.1 1251.73 3699.57 1250.39C3698.03 1249.06 3697.26 1246.35 3697.26 1242.25C3697.26 1240.2 3697.47 1237.54 3697.88 1234.26C3698.29 1230.99 3698.7 1227.71 3699.11 1224.43C3700.23 1217.16 3701.05 1210.86 3701.57 1205.53C3702.08 1200.21 3702.33 1194.78 3702.33 1189.25C3702.33 1184.13 3702.03 1179.37 3701.41 1174.96C3700.9 1170.56 3699.52 1166.77 3697.26 1163.59C3696.44 1162.26 3696.03 1161.24 3696.03 1160.52C3696.03 1159.29 3696.7 1158.01 3698.03 1156.68C3699.47 1155.25 3701.16 1154.07 3703.1 1153.15C3705.15 1152.23 3707.04 1151.76 3708.79 1151.76C3711.96 1151.76 3714.06 1153.2 3715.08 1156.07C3716.21 1158.83 3716.77 1162.31 3716.77 1166.51C3716.77 1169.07 3716.62 1172.25 3716.31 1176.04C3716.01 1179.83 3715.65 1183.51 3715.24 1187.1C3714.93 1190.58 3714.62 1193.3 3714.32 1195.24C3713.6 1200.67 3713.04 1205.74 3712.63 1210.45C3712.22 1215.16 3712.01 1219.16 3712.01 1222.43C3712.01 1226.33 3712.37 1229.6 3713.09 1232.27C3713.91 1234.93 3715.29 1237.13 3717.24 1238.87C3718.57 1240.1 3719.23 1241.48 3719.23 1243.02C3719.23 1245.48 3717.95 1247.68 3715.39 1249.63C3712.93 1251.47 3709.66 1252.39 3705.56 1252.39ZM3762.38 1252.39C3761.15 1252.39 3759.87 1252.19 3758.54 1251.78C3757.31 1251.37 3756.28 1250.39 3755.46 1248.86C3754.64 1247.32 3754.23 1244.97 3754.23 1241.79C3754.23 1239.54 3754.39 1236.77 3754.7 1233.49C3755.11 1230.22 3755.62 1226.68 3756.23 1222.89C3757.05 1217.77 3757.72 1212.4 3758.23 1206.76C3758.84 1201.03 3759.15 1195.19 3759.15 1189.25C3759.15 1184.44 3758.89 1180.29 3758.38 1176.81C3757.97 1173.22 3757.41 1170.46 3756.69 1168.51C3752.8 1168.61 3749.11 1168.87 3745.63 1169.28C3742.15 1169.69 3738.62 1170.35 3735.03 1171.28C3734.11 1171.38 3733.29 1171.53 3732.57 1171.74C3731.96 1171.84 3731.34 1171.89 3730.73 1171.89C3729.81 1171.89 3729.14 1171.74 3728.73 1171.43C3728.32 1171.02 3728.12 1170.1 3728.12 1168.66C3728.12 1166.92 3728.37 1165.13 3728.89 1163.29C3729.4 1161.34 3730.17 1159.7 3731.19 1158.37C3732.21 1156.94 3733.39 1155.91 3734.72 1155.3C3736.16 1154.58 3737.69 1154.12 3739.33 1153.92C3741.89 1153.61 3745.17 1153.35 3749.17 1153.15C3753.16 1152.84 3757.51 1152.58 3762.22 1152.38C3767.04 1152.17 3771.75 1152.07 3776.36 1152.07C3783.83 1152.07 3789.16 1152.12 3792.33 1152.23C3795.61 1152.33 3797.81 1152.48 3798.94 1152.69C3800.37 1152.89 3801.35 1153.35 3801.86 1154.07C3802.47 1154.68 3802.78 1155.71 3802.78 1157.14C3802.78 1159.91 3801.55 1162.67 3799.09 1165.44C3798.07 1166.67 3796.99 1167.64 3795.87 1168.36C3794.74 1168.97 3793.26 1169.23 3791.41 1169.12C3789.77 1168.92 3787.37 1168.77 3784.19 1168.66C3781.02 1168.56 3777.48 1168.51 3773.59 1168.51C3773.49 1172.09 3773.18 1176.29 3772.67 1181.11C3772.26 1185.82 3771.75 1190.58 3771.13 1195.4C3770.52 1200.11 3770.01 1204.82 3769.6 1209.53C3769.19 1214.24 3768.98 1218.54 3768.98 1222.43C3768.98 1226.02 3769.29 1229.19 3769.9 1231.96C3770.62 1234.62 3772 1236.93 3774.05 1238.87C3775.49 1240.31 3776.2 1241.84 3776.2 1243.48C3776.2 1245.73 3774.92 1247.78 3772.36 1249.63C3769.8 1251.47 3766.47 1252.39 3762.38 1252.39ZM3872.32 1252.54C3869.14 1252.54 3866.43 1251.21 3864.17 1248.55C3862.02 1245.79 3859.92 1241.28 3857.87 1235.03C3856.85 1231.96 3855.98 1228.99 3855.26 1226.12C3854.65 1223.15 3854.19 1220.28 3853.88 1217.52C3852.55 1219.57 3851.32 1220.95 3850.19 1221.67C3849.17 1222.28 3847.63 1222.59 3845.58 1222.59C3840.57 1222.59 3835.24 1222.54 3829.61 1222.43C3823.97 1222.23 3818.96 1222.08 3814.55 1221.97C3814.35 1223.82 3814.14 1225.71 3813.94 1227.66C3813.83 1229.5 3813.78 1231.34 3813.78 1233.19C3813.78 1234.83 3813.83 1236.47 3813.94 1238.1C3814.14 1239.74 3814.3 1241.33 3814.4 1242.87C3814.71 1245.73 3813.58 1248.04 3811.02 1249.78C3808.46 1251.52 3805.28 1252.39 3801.49 1252.39C3798.22 1252.39 3796.58 1250.96 3796.58 1248.09C3796.58 1246.35 3797.04 1243.74 3797.96 1240.25C3798.47 1237.9 3798.88 1235.9 3799.19 1234.26C3799.5 1232.52 3799.65 1231.14 3799.65 1230.12C3799.65 1227.25 3798.78 1225.3 3797.04 1224.28C3795.6 1223.46 3794.89 1222.38 3794.89 1221.05C3794.89 1219.82 3795.14 1218.34 3795.66 1216.6C3796.27 1214.85 3797.04 1213.27 3797.96 1211.83C3798.88 1210.3 3799.75 1209.22 3800.57 1208.61C3801.29 1208.2 3802.16 1207.84 3803.18 1207.53C3804.21 1207.22 3805.49 1207.02 3807.02 1206.92C3811.02 1195.45 3815.47 1185.56 3820.39 1177.27C3825.41 1168.87 3830.73 1162.42 3836.37 1157.91C3842 1153.3 3847.74 1151 3853.57 1151C3857.16 1151 3859.77 1152.23 3861.41 1154.68C3863.05 1157.04 3863.87 1161.03 3863.87 1166.67V1173.58C3863.87 1183.92 3864.63 1193.45 3866.17 1202.15C3867.71 1210.86 3869.6 1217.93 3871.86 1223.36C3874.11 1229.09 3877.23 1233.8 3881.23 1237.49C3882.46 1238.51 3883.27 1239.44 3883.68 1240.25C3884.09 1240.97 3884.3 1241.74 3884.3 1242.56C3884.3 1244.1 3883.68 1245.63 3882.46 1247.17C3881.33 1248.7 3879.84 1249.98 3878 1251.01C3876.16 1252.03 3874.26 1252.54 3872.32 1252.54ZM3819.16 1206C3824.18 1205.79 3828.58 1205.64 3832.37 1205.53C3836.16 1205.33 3839.34 1205.23 3841.9 1205.23H3852.65C3852.45 1202.36 3852.24 1199.34 3852.04 1196.16C3851.93 1192.99 3851.88 1189.66 3851.88 1186.18V1177.27C3851.88 1174.3 3851.53 1172.35 3850.81 1171.43C3850.19 1170.41 3848.96 1169.89 3847.12 1169.89C3842.1 1169.89 3837.08 1173.17 3832.07 1179.73C3827.05 1186.28 3822.75 1195.04 3819.16 1206ZM3920.96 1252.85C3914 1252.85 3908.62 1252.08 3904.83 1250.55C3901.04 1249.01 3898.43 1246.86 3896.99 1244.1C3895.56 1241.33 3894.84 1238.05 3894.84 1234.26C3894.84 1232.42 3895 1230.37 3895.3 1228.12C3895.61 1225.76 3895.97 1223.1 3896.38 1220.13C3898.22 1208.86 3899.14 1198.88 3899.14 1190.17C3899.14 1184.44 3898.89 1179.57 3898.38 1175.58C3897.97 1171.48 3896.64 1167.59 3894.38 1163.9C3893.97 1163.29 3893.61 1162.67 3893.31 1162.06C3893 1161.34 3892.85 1160.78 3892.85 1160.37C3892.85 1159.14 3893.56 1157.86 3895 1156.53C3896.43 1155.2 3898.17 1154.07 3900.22 1153.15C3902.27 1152.23 3904.21 1151.76 3906.06 1151.76C3909.54 1151.76 3911.69 1153.15 3912.51 1155.91C3913.43 1158.68 3913.89 1162.62 3913.89 1167.74C3913.89 1169.69 3913.69 1172.81 3913.28 1177.11C3912.87 1181.31 3912.25 1186.69 3911.43 1193.24C3910.62 1199.59 3910 1205.07 3909.59 1209.68C3909.18 1214.29 3908.98 1217.98 3908.98 1220.74C3908.98 1224.84 3909.44 1227.96 3910.36 1230.12C3911.38 1232.16 3913.02 1233.6 3915.28 1234.42C3917.53 1235.24 3920.7 1235.65 3924.8 1235.65C3929.2 1235.65 3933.4 1235.29 3937.4 1234.57C3941.39 1233.75 3945.28 1232.52 3949.07 1230.88C3949.59 1230.68 3950.05 1230.52 3950.46 1230.42C3950.87 1230.32 3951.22 1230.27 3951.53 1230.27C3952.45 1230.27 3953.32 1230.83 3954.14 1231.96C3954.96 1233.09 3955.37 1234.67 3955.37 1236.72C3955.37 1241.23 3952.91 1244.76 3948 1247.32C3941.44 1251.01 3932.43 1252.85 3920.96 1252.85ZM4023.9 1252.85C4018.88 1252.85 4014.22 1252.14 4009.92 1250.7C4005.72 1249.17 4002.34 1247.07 3999.78 1244.4C3997.22 1241.74 3995.94 1238.62 3995.94 1235.03C3995.94 1232.68 3996.5 1230.63 3997.63 1228.89C3998.76 1227.04 4000.29 1226.12 4002.24 1226.12C4003.47 1226.12 4004.75 1226.58 4006.08 1227.5C4008.64 1229.76 4011.92 1231.75 4015.91 1233.49C4020.01 1235.13 4024.36 1235.95 4028.97 1235.95C4035.01 1235.95 4039.93 1234.78 4043.72 1232.42C4047.61 1229.96 4049.55 1226.68 4049.55 1222.59C4049.55 1218.7 4047.76 1215.88 4044.18 1214.14C4040.59 1212.4 4035.63 1210.76 4029.28 1209.22C4024.56 1208.1 4020.01 1206.66 4015.6 1204.92C4011.3 1203.18 4007.72 1200.77 4004.85 1197.7C4002.08 1194.52 4000.7 1190.33 4000.7 1185.1C4000.7 1181.11 4001.57 1177.16 4003.31 1173.27C4005.05 1169.28 4007.61 1165.64 4010.99 1162.37C4014.37 1159.09 4018.47 1156.48 4023.28 1154.53C4028.1 1152.48 4033.53 1151.46 4039.57 1151.46C4044.08 1151.46 4048.17 1151.97 4051.86 1152.99C4055.65 1154.02 4058.62 1155.45 4060.77 1157.3C4063.02 1159.14 4064.15 1161.39 4064.15 1164.06C4064.15 1166.1 4063.59 1167.9 4062.46 1169.43C4061.33 1170.97 4060 1172.2 4058.47 1173.12C4056.93 1173.94 4055.6 1174.35 4054.47 1174.35C4053.45 1174.35 4052.06 1173.89 4050.32 1172.97C4047.46 1171.43 4044.23 1170.25 4040.64 1169.43C4037.16 1168.51 4034.09 1168.05 4031.43 1168.05C4026.41 1168.05 4022.31 1169.18 4019.14 1171.43C4016.06 1173.58 4014.53 1176.14 4014.53 1179.11C4014.53 1182.39 4016.47 1185.15 4020.37 1187.41C4024.36 1189.56 4031.48 1191.86 4041.72 1194.32C4048.68 1196.16 4054.11 1198.72 4058 1202C4061.9 1205.18 4063.84 1210.25 4063.84 1217.21C4063.84 1223.46 4062.15 1229.3 4058.77 1234.72C4055.5 1240.15 4050.84 1244.56 4044.79 1247.94C4038.85 1251.21 4031.89 1252.85 4023.9 1252.85ZM4111.95 1252.85C4101.4 1252.85 4092.95 1249.78 4086.6 1243.63C4080.35 1237.39 4077.23 1228.22 4077.23 1216.14C4077.23 1210.71 4077.95 1205.07 4079.38 1199.24C4080.92 1193.4 4083.43 1187.61 4086.91 1181.88C4084.96 1183.62 4083.12 1184.49 4081.38 1184.49C4078.41 1184.49 4076.92 1182.13 4076.92 1177.42C4076.92 1174.04 4077.64 1171.33 4079.07 1169.28C4080.51 1167.23 4081.89 1165.59 4083.22 1164.36C4085.47 1162.42 4088.34 1160.47 4091.82 1158.52C4095.31 1156.48 4099.4 1154.79 4104.11 1153.45C4108.83 1152.12 4114.1 1151.46 4119.94 1151.46C4133.66 1151.46 4143.96 1155.35 4150.82 1163.13C4157.78 1170.81 4161.26 1181.52 4161.26 1195.24C4161.26 1203.33 4160.09 1210.86 4157.73 1217.82C4155.38 1224.79 4152 1230.88 4147.59 1236.11C4143.29 1241.33 4138.12 1245.43 4132.07 1248.4C4126.03 1251.37 4119.32 1252.85 4111.95 1252.85ZM4117.33 1235.65C4122.45 1235.65 4127.47 1234.47 4132.38 1232.11C4137.4 1229.76 4141.5 1226.02 4144.67 1220.9C4147.95 1215.67 4149.59 1208.91 4149.59 1200.62C4149.59 1192.83 4148.1 1186.64 4145.13 1182.03C4142.16 1177.32 4138.37 1173.94 4133.76 1171.89C4129.26 1169.74 4124.5 1168.66 4119.48 1168.66C4115.69 1168.66 4112.26 1169.18 4109.18 1170.2C4106.21 1171.12 4103.55 1172.15 4101.2 1173.27C4098.53 1177.37 4096.02 1182.39 4093.67 1188.33C4091.31 1194.17 4090.13 1200.36 4090.13 1206.92C4090.13 1213.47 4091.41 1218.9 4093.98 1223.2C4096.54 1227.4 4099.86 1230.52 4103.96 1232.57C4108.16 1234.62 4112.62 1235.65 4117.33 1235.65ZM4203.01 1252.85C4196.05 1252.85 4190.67 1252.08 4186.88 1250.55C4183.09 1249.01 4180.48 1246.86 4179.05 1244.1C4177.61 1241.33 4176.89 1238.05 4176.89 1234.26C4176.89 1232.42 4177.05 1230.37 4177.36 1228.12C4177.66 1225.76 4178.02 1223.1 4178.43 1220.13C4180.27 1208.86 4181.2 1198.88 4181.2 1190.17C4181.2 1184.44 4180.94 1179.57 4180.43 1175.58C4180.02 1171.48 4178.69 1167.59 4176.43 1163.9C4176.02 1163.29 4175.67 1162.67 4175.36 1162.06C4175.05 1161.34 4174.9 1160.78 4174.9 1160.37C4174.9 1159.14 4175.61 1157.86 4177.05 1156.53C4178.48 1155.2 4180.22 1154.07 4182.27 1153.15C4184.32 1152.23 4186.27 1151.76 4188.11 1151.76C4191.59 1151.76 4193.74 1153.15 4194.56 1155.91C4195.48 1158.68 4195.94 1162.62 4195.94 1167.74C4195.94 1169.69 4195.74 1172.81 4195.33 1177.11C4194.92 1181.31 4194.31 1186.69 4193.49 1193.24C4192.67 1199.59 4192.05 1205.07 4191.64 1209.68C4191.23 1214.29 4191.03 1217.98 4191.03 1220.74C4191.03 1224.84 4191.49 1227.96 4192.41 1230.12C4193.44 1232.16 4195.07 1233.6 4197.33 1234.42C4199.58 1235.24 4202.76 1235.65 4206.85 1235.65C4211.26 1235.65 4215.46 1235.29 4219.45 1234.57C4223.44 1233.75 4227.34 1232.52 4231.13 1230.88C4231.64 1230.68 4232.1 1230.52 4232.51 1230.42C4232.92 1230.32 4233.28 1230.27 4233.58 1230.27C4234.51 1230.27 4235.38 1230.83 4236.2 1231.96C4237.01 1233.09 4237.42 1234.67 4237.42 1236.72C4237.42 1241.23 4234.97 1244.76 4230.05 1247.32C4223.5 1251.01 4214.48 1252.85 4203.01 1252.85ZM4278.48 1252.85C4267.73 1252.85 4259.69 1250.04 4254.36 1244.4C4249.04 1238.67 4246.38 1229.71 4246.38 1217.52C4246.38 1215.47 4246.43 1213.32 4246.53 1211.07C4246.73 1208.81 4246.94 1206.61 4247.14 1204.46C4247.35 1202.41 4247.5 1200.36 4247.6 1198.31C4247.71 1196.27 4247.76 1194.42 4247.76 1192.78C4247.76 1186.64 4247.5 1181.31 4246.99 1176.81C4246.48 1172.3 4244.94 1168 4242.38 1163.9C4241.56 1162.57 4241.15 1161.49 4241.15 1160.68C4241.15 1159.34 4241.87 1158.06 4243.3 1156.83C4244.84 1155.5 4246.63 1154.38 4248.68 1153.45C4250.73 1152.53 4252.67 1152.07 4254.52 1152.07C4256.98 1152.07 4258.72 1152.89 4259.74 1154.53C4260.87 1156.17 4261.58 1158.22 4261.89 1160.68C4262.2 1163.03 4262.35 1165.44 4262.35 1167.9C4262.35 1170.46 4262.2 1173.27 4261.89 1176.35C4261.69 1179.42 4261.33 1182.75 4260.82 1186.33C4260.41 1190.22 4260 1194.32 4259.59 1198.62C4259.28 1202.82 4259.13 1207.07 4259.13 1211.37C4259.13 1217.31 4260.15 1222.08 4262.2 1225.66C4264.35 1229.14 4267.22 1231.7 4270.8 1233.34C4274.49 1234.88 4278.59 1235.65 4283.09 1235.65C4290.98 1235.65 4296.92 1233.65 4300.91 1229.65C4304.91 1225.56 4307.67 1220.23 4309.21 1213.68C4309.93 1210.71 4310.49 1207.33 4310.9 1203.54C4311.31 1199.65 4311.51 1195.7 4311.51 1191.71C4311.51 1186.69 4311.16 1181.88 4310.44 1177.27C4309.82 1172.66 4308.54 1168.61 4306.6 1165.13C4306.19 1164.31 4305.83 1163.59 4305.52 1162.98C4305.22 1162.37 4305.06 1161.7 4305.06 1160.98C4305.06 1159.55 4305.68 1158.17 4306.9 1156.83C4308.13 1155.4 4309.67 1154.27 4311.51 1153.45C4313.36 1152.53 4315.25 1152.07 4317.2 1152.07C4320.48 1152.07 4322.68 1153.45 4323.8 1156.22C4324.93 1158.99 4325.49 1162.21 4325.49 1165.9C4325.49 1168.15 4325.29 1171.43 4324.88 1175.73C4324.57 1180.03 4324.11 1184.64 4323.5 1189.56C4322.88 1194.47 4322.27 1199.13 4321.65 1203.54C4321.04 1207.84 4320.48 1211.17 4319.96 1213.52C4317.4 1225.71 4312.9 1235.34 4306.44 1242.41C4299.99 1249.37 4290.67 1252.85 4278.48 1252.85ZM4367.14 1252.39C4365.91 1252.39 4364.63 1252.19 4363.3 1251.78C4362.07 1251.37 4361.04 1250.39 4360.22 1248.86C4359.41 1247.32 4359 1244.97 4359 1241.79C4359 1239.54 4359.15 1236.77 4359.46 1233.49C4359.87 1230.22 4360.38 1226.68 4360.99 1222.89C4361.81 1217.77 4362.48 1212.4 4362.99 1206.76C4363.6 1201.03 4363.91 1195.19 4363.91 1189.25C4363.91 1184.44 4363.66 1180.29 4363.14 1176.81C4362.73 1173.22 4362.17 1170.46 4361.45 1168.51C4357.56 1168.61 4353.87 1168.87 4350.39 1169.28C4346.91 1169.69 4343.38 1170.35 4339.79 1171.28C4338.87 1171.38 4338.05 1171.53 4337.33 1171.74C4336.72 1171.84 4336.11 1171.89 4335.49 1171.89C4334.57 1171.89 4333.9 1171.74 4333.49 1171.43C4333.08 1171.02 4332.88 1170.1 4332.88 1168.66C4332.88 1166.92 4333.13 1165.13 4333.65 1163.29C4334.16 1161.34 4334.93 1159.7 4335.95 1158.37C4336.98 1156.94 4338.15 1155.91 4339.48 1155.3C4340.92 1154.58 4342.46 1154.12 4344.09 1153.92C4346.65 1153.61 4349.93 1153.35 4353.93 1153.15C4357.92 1152.84 4362.27 1152.58 4366.98 1152.38C4371.8 1152.17 4376.51 1152.07 4381.12 1152.07C4388.59 1152.07 4393.92 1152.12 4397.1 1152.23C4400.37 1152.33 4402.57 1152.48 4403.7 1152.69C4405.14 1152.89 4406.11 1153.35 4406.62 1154.07C4407.23 1154.68 4407.54 1155.71 4407.54 1157.14C4407.54 1159.91 4406.31 1162.67 4403.86 1165.44C4402.83 1166.67 4401.76 1167.64 4400.63 1168.36C4399.5 1168.97 4398.02 1169.23 4396.17 1169.12C4394.54 1168.92 4392.13 1168.77 4388.95 1168.66C4385.78 1168.56 4382.24 1168.51 4378.35 1168.51C4378.25 1172.09 4377.94 1176.29 4377.43 1181.11C4377.02 1185.82 4376.51 1190.58 4375.89 1195.4C4375.28 1200.11 4374.77 1204.82 4374.36 1209.53C4373.95 1214.24 4373.74 1218.54 4373.74 1222.43C4373.74 1226.02 4374.05 1229.19 4374.67 1231.96C4375.38 1234.62 4376.77 1236.93 4378.81 1238.87C4380.25 1240.31 4380.96 1241.84 4380.96 1243.48C4380.96 1245.73 4379.68 1247.78 4377.12 1249.63C4374.56 1251.47 4371.23 1252.39 4367.14 1252.39ZM4425.09 1252.39C4422.63 1252.39 4420.64 1251.73 4419.1 1250.39C4417.56 1249.06 4416.8 1246.35 4416.8 1242.25C4416.8 1240.2 4417 1237.54 4417.41 1234.26C4417.82 1230.99 4418.23 1227.71 4418.64 1224.43C4419.77 1217.16 4420.59 1210.86 4421.1 1205.53C4421.61 1200.21 4421.87 1194.78 4421.87 1189.25C4421.87 1184.13 4421.56 1179.37 4420.94 1174.96C4420.43 1170.56 4419.05 1166.77 4416.8 1163.59C4415.98 1162.26 4415.57 1161.24 4415.57 1160.52C4415.57 1159.29 4416.23 1158.01 4417.56 1156.68C4419 1155.25 4420.69 1154.07 4422.63 1153.15C4424.68 1152.23 4426.58 1151.76 4428.32 1151.76C4431.49 1151.76 4433.59 1153.2 4434.62 1156.07C4435.74 1158.83 4436.31 1162.31 4436.31 1166.51C4436.31 1169.07 4436.15 1172.25 4435.85 1176.04C4435.54 1179.83 4435.18 1183.51 4434.77 1187.1C4434.46 1190.58 4434.16 1193.3 4433.85 1195.24C4433.13 1200.67 4432.57 1205.74 4432.16 1210.45C4431.75 1215.16 4431.54 1219.16 4431.54 1222.43C4431.54 1226.33 4431.9 1229.6 4432.62 1232.27C4433.44 1234.93 4434.82 1237.13 4436.77 1238.87C4438.1 1240.1 4438.76 1241.48 4438.76 1243.02C4438.76 1245.48 4437.48 1247.68 4434.92 1249.63C4432.47 1251.47 4429.19 1252.39 4425.09 1252.39ZM4488.67 1252.85C4478.12 1252.85 4469.67 1249.78 4463.32 1243.63C4457.07 1237.39 4453.95 1228.22 4453.95 1216.14C4453.95 1210.71 4454.67 1205.07 4456.1 1199.24C4457.64 1193.4 4460.15 1187.61 4463.63 1181.88C4461.68 1183.62 4459.84 1184.49 4458.1 1184.49C4455.13 1184.49 4453.64 1182.13 4453.64 1177.42C4453.64 1174.04 4454.36 1171.33 4455.79 1169.28C4457.23 1167.23 4458.61 1165.59 4459.94 1164.36C4462.19 1162.42 4465.06 1160.47 4468.54 1158.52C4472.03 1156.48 4476.12 1154.79 4480.83 1153.45C4485.55 1152.12 4490.82 1151.46 4496.66 1151.46C4510.38 1151.46 4520.67 1155.35 4527.54 1163.13C4534.5 1170.81 4537.98 1181.52 4537.98 1195.24C4537.98 1203.33 4536.81 1210.86 4534.45 1217.82C4532.09 1224.79 4528.71 1230.88 4524.31 1236.11C4520.01 1241.33 4514.84 1245.43 4508.79 1248.4C4502.75 1251.37 4496.04 1252.85 4488.67 1252.85ZM4494.05 1235.65C4499.17 1235.65 4504.19 1234.47 4509.1 1232.11C4514.12 1229.76 4518.22 1226.02 4521.39 1220.9C4524.67 1215.67 4526.31 1208.91 4526.31 1200.62C4526.31 1192.83 4524.82 1186.64 4521.85 1182.03C4518.88 1177.32 4515.09 1173.94 4510.48 1171.89C4505.98 1169.74 4501.22 1168.66 4496.2 1168.66C4492.41 1168.66 4488.98 1169.18 4485.9 1170.2C4482.93 1171.12 4480.27 1172.15 4477.91 1173.27C4475.25 1177.37 4472.74 1182.39 4470.39 1188.33C4468.03 1194.17 4466.85 1200.36 4466.85 1206.92C4466.85 1213.47 4468.13 1218.9 4470.69 1223.2C4473.25 1227.4 4476.58 1230.52 4480.68 1232.57C4484.88 1234.62 4489.33 1235.65 4494.05 1235.65ZM4559.3 1252.39C4557.04 1252.39 4555.1 1251.83 4553.46 1250.7C4551.92 1249.47 4551.16 1246.66 4551.16 1242.25C4551.16 1240 4551.36 1237.28 4551.77 1234.11C4552.28 1230.83 4552.79 1227.45 4553.31 1223.97C4554.13 1219.05 4554.95 1213.68 4555.76 1207.84C4556.58 1201.9 4556.99 1196.01 4556.99 1190.17C4556.99 1184.03 4556.79 1179.32 4556.38 1176.04C4555.97 1172.76 4555.51 1170.1 4555 1168.05C4554.79 1166.92 4554.59 1165.9 4554.38 1164.98C4554.28 1164.06 4554.23 1163.03 4554.23 1161.9C4554.23 1158.63 4555.25 1156.17 4557.3 1154.53C4559.45 1152.79 4561.81 1151.92 4564.37 1151.92C4566.93 1151.92 4569.08 1152.58 4570.82 1153.92C4572.56 1155.14 4574.1 1156.48 4575.43 1157.91C4584.24 1167.84 4592.17 1178.29 4599.24 1189.25C4606.31 1200.11 4612.2 1211.27 4616.91 1222.74C4617.42 1223.56 4617.88 1223.97 4618.29 1223.97C4618.91 1223.97 4619.32 1223.56 4619.52 1222.74C4621.36 1210.76 4622.29 1199.9 4622.29 1190.17C4622.29 1184.33 4622.03 1179.73 4621.52 1176.35C4621.11 1172.86 4620.54 1170.2 4619.83 1168.36C4619.21 1166.41 4618.6 1164.87 4617.98 1163.75C4617.68 1163.03 4617.42 1162.42 4617.22 1161.9C4617.01 1161.29 4616.91 1160.73 4616.91 1160.21C4616.91 1158.99 4617.52 1157.76 4618.75 1156.53C4620.08 1155.2 4621.67 1154.12 4623.51 1153.3C4625.36 1152.48 4627.15 1152.07 4628.89 1152.07C4631.35 1152.07 4633.14 1152.89 4634.27 1154.53C4635.4 1156.17 4636.11 1158.22 4636.42 1160.68C4636.83 1163.03 4637.03 1165.44 4637.03 1167.9C4637.03 1170.66 4636.78 1174.25 4636.27 1178.65C4635.75 1183.05 4635.14 1187.82 4634.42 1192.94C4633.81 1197.96 4633.24 1202.92 4632.73 1207.84C4632.32 1212.76 4632.12 1217.11 4632.12 1220.9C4632.12 1223.05 4632.17 1225.15 4632.27 1227.2C4632.48 1229.24 4632.68 1231.24 4632.89 1233.19C4633.19 1235.75 4633.35 1238 4633.35 1239.95C4633.35 1243.74 4632.37 1246.76 4630.43 1249.01C4628.58 1251.16 4626.02 1252.24 4622.75 1252.24C4620.49 1252.24 4618.24 1251.57 4615.99 1250.24C4613.84 1248.91 4612.2 1246.76 4611.07 1243.79C4606.67 1232.52 4601.24 1221.56 4594.79 1210.91C4588.44 1200.16 4581.78 1190.89 4574.81 1183.1C4573.69 1182.08 4572.77 1181.57 4572.05 1181.57C4571.03 1181.57 4570.36 1182.7 4570.05 1184.95C4569.54 1188.84 4569.03 1193.09 4568.52 1197.7C4568 1202.31 4567.59 1206.81 4567.29 1211.22C4566.98 1215.52 4566.83 1219.21 4566.83 1222.28C4566.83 1225.76 4567.13 1228.78 4567.75 1231.34C4568.36 1233.8 4569.28 1236.21 4570.51 1238.56C4571.64 1240.61 4572.2 1242.46 4572.2 1244.1C4572.2 1246.04 4571.08 1247.94 4568.82 1249.78C4566.57 1251.52 4563.39 1252.39 4559.3 1252.39ZM4717.75 1252.39C4716.52 1252.39 4715.24 1252.19 4713.91 1251.78C4712.68 1251.37 4711.66 1250.39 4710.84 1248.86C4710.02 1247.32 4709.61 1244.97 4709.61 1241.79C4709.61 1239.54 4709.76 1236.77 4710.07 1233.49C4710.48 1230.22 4710.99 1226.68 4711.61 1222.89C4712.43 1217.77 4713.09 1212.4 4713.6 1206.76C4714.22 1201.03 4714.53 1195.19 4714.53 1189.25C4714.53 1184.44 4714.27 1180.29 4713.76 1176.81C4713.35 1173.22 4712.79 1170.46 4712.07 1168.51C4708.18 1168.61 4704.49 1168.87 4701.01 1169.28C4697.52 1169.69 4693.99 1170.35 4690.41 1171.28C4689.48 1171.38 4688.67 1171.53 4687.95 1171.74C4687.33 1171.84 4686.72 1171.89 4686.1 1171.89C4685.18 1171.89 4684.52 1171.74 4684.11 1171.43C4683.7 1171.02 4683.49 1170.1 4683.49 1168.66C4683.49 1166.92 4683.75 1165.13 4684.26 1163.29C4684.77 1161.34 4685.54 1159.7 4686.57 1158.37C4687.59 1156.94 4688.77 1155.91 4690.1 1155.3C4691.53 1154.58 4693.07 1154.12 4694.71 1153.92C4697.27 1153.61 4700.55 1153.35 4704.54 1153.15C4708.53 1152.84 4712.89 1152.58 4717.6 1152.38C4722.41 1152.17 4727.12 1152.07 4731.73 1152.07C4739.21 1152.07 4744.53 1152.12 4747.71 1152.23C4750.99 1152.33 4753.19 1152.48 4754.32 1152.69C4755.75 1152.89 4756.72 1153.35 4757.23 1154.07C4757.85 1154.68 4758.16 1155.71 4758.16 1157.14C4758.16 1159.91 4756.93 1162.67 4754.47 1165.44C4753.45 1166.67 4752.37 1167.64 4751.24 1168.36C4750.12 1168.97 4748.63 1169.23 4746.79 1169.12C4745.15 1168.92 4742.74 1168.77 4739.57 1168.66C4736.39 1168.56 4732.86 1168.51 4728.97 1168.51C4728.86 1172.09 4728.56 1176.29 4728.05 1181.11C4727.64 1185.82 4727.12 1190.58 4726.51 1195.4C4725.89 1200.11 4725.38 1204.82 4724.97 1209.53C4724.56 1214.24 4724.36 1218.54 4724.36 1222.43C4724.36 1226.02 4724.67 1229.19 4725.28 1231.96C4726 1234.62 4727.38 1236.93 4729.43 1238.87C4730.86 1240.31 4731.58 1241.84 4731.58 1243.48C4731.58 1245.73 4730.3 1247.78 4727.74 1249.63C4725.18 1251.47 4721.85 1252.39 4717.75 1252.39ZM4796.98 1252.85C4786.43 1252.85 4777.98 1249.78 4771.63 1243.63C4765.38 1237.39 4762.26 1228.22 4762.26 1216.14C4762.26 1210.71 4762.97 1205.07 4764.41 1199.24C4765.94 1193.4 4768.45 1187.61 4771.93 1181.88C4769.99 1183.62 4768.14 1184.49 4766.4 1184.49C4763.43 1184.49 4761.95 1182.13 4761.95 1177.42C4761.95 1174.04 4762.66 1171.33 4764.1 1169.28C4765.53 1167.23 4766.92 1165.59 4768.25 1164.36C4770.5 1162.42 4773.37 1160.47 4776.85 1158.52C4780.33 1156.48 4784.43 1154.79 4789.14 1153.45C4793.85 1152.12 4799.13 1151.46 4804.96 1151.46C4818.69 1151.46 4828.98 1155.35 4835.84 1163.13C4842.81 1170.81 4846.29 1181.52 4846.29 1195.24C4846.29 1203.33 4845.11 1210.86 4842.76 1217.82C4840.4 1224.79 4837.02 1230.88 4832.62 1236.11C4828.32 1241.33 4823.14 1245.43 4817.1 1248.4C4811.06 1251.37 4804.35 1252.85 4796.98 1252.85ZM4802.35 1235.65C4807.47 1235.65 4812.49 1234.47 4817.41 1232.11C4822.43 1229.76 4826.52 1226.02 4829.7 1220.9C4832.98 1215.67 4834.61 1208.91 4834.61 1200.62C4834.61 1192.83 4833.13 1186.64 4830.16 1182.03C4827.19 1177.32 4823.4 1173.94 4818.79 1171.89C4814.28 1169.74 4809.52 1168.66 4804.5 1168.66C4800.71 1168.66 4797.28 1169.18 4794.21 1170.2C4791.24 1171.12 4788.58 1172.15 4786.22 1173.27C4783.56 1177.37 4781.05 1182.39 4778.69 1188.33C4776.34 1194.17 4775.16 1200.36 4775.16 1206.92C4775.16 1213.47 4776.44 1218.9 4779 1223.2C4781.56 1227.4 4784.89 1230.52 4788.99 1232.57C4793.19 1234.62 4797.64 1235.65 4802.35 1235.65ZM4929.44 1252.85C4922.48 1252.85 4917.1 1252.08 4913.31 1250.55C4909.52 1249.01 4906.91 1246.86 4905.48 1244.1C4904.04 1241.33 4903.33 1238.05 4903.33 1234.26C4903.33 1232.42 4903.48 1230.37 4903.79 1228.12C4904.1 1225.76 4904.45 1223.1 4904.86 1220.13C4906.71 1208.86 4907.63 1198.88 4907.63 1190.17C4907.63 1184.44 4907.37 1179.57 4906.86 1175.58C4906.45 1171.48 4905.12 1167.59 4902.87 1163.9C4902.46 1163.29 4902.1 1162.67 4901.79 1162.06C4901.48 1161.34 4901.33 1160.78 4901.33 1160.37C4901.33 1159.14 4902.05 1157.86 4903.48 1156.53C4904.92 1155.2 4906.66 1154.07 4908.7 1153.15C4910.75 1152.23 4912.7 1151.76 4914.54 1151.76C4918.03 1151.76 4920.18 1153.15 4921 1155.91C4921.92 1158.68 4922.38 1162.62 4922.38 1167.74C4922.38 1169.69 4922.17 1172.81 4921.76 1177.11C4921.35 1181.31 4920.74 1186.69 4919.92 1193.24C4919.1 1199.59 4918.49 1205.07 4918.08 1209.68C4917.67 1214.29 4917.46 1217.98 4917.46 1220.74C4917.46 1224.84 4917.92 1227.96 4918.84 1230.12C4919.87 1232.16 4921.51 1233.6 4923.76 1234.42C4926.01 1235.24 4929.19 1235.65 4933.29 1235.65C4937.69 1235.65 4941.89 1235.29 4945.88 1234.57C4949.88 1233.75 4953.77 1232.52 4957.56 1230.88C4958.07 1230.68 4958.53 1230.52 4958.94 1230.42C4959.35 1230.32 4959.71 1230.27 4960.02 1230.27C4960.94 1230.27 4961.81 1230.83 4962.63 1231.96C4963.45 1233.09 4963.86 1234.67 4963.86 1236.72C4963.86 1241.23 4961.4 1244.76 4956.48 1247.32C4949.93 1251.01 4940.92 1252.85 4929.44 1252.85ZM4983.49 1252.39C4981.04 1252.39 4979.04 1251.73 4977.5 1250.39C4975.97 1249.06 4975.2 1246.35 4975.2 1242.25C4975.2 1240.2 4975.4 1237.54 4975.81 1234.26C4976.22 1230.99 4976.63 1227.71 4977.04 1224.43C4978.17 1217.16 4978.99 1210.86 4979.5 1205.53C4980.01 1200.21 4980.27 1194.78 4980.27 1189.25C4980.27 1184.13 4979.96 1179.37 4979.35 1174.96C4978.83 1170.56 4977.45 1166.77 4975.2 1163.59C4974.38 1162.26 4973.97 1161.24 4973.97 1160.52C4973.97 1159.29 4974.64 1158.01 4975.97 1156.68C4977.4 1155.25 4979.09 1154.07 4981.04 1153.15C4983.08 1152.23 4984.98 1151.76 4986.72 1151.76C4989.9 1151.76 4992 1153.2 4993.02 1156.07C4994.15 1158.83 4994.71 1162.31 4994.71 1166.51C4994.71 1169.07 4994.56 1172.25 4994.25 1176.04C4993.94 1179.83 4993.58 1183.51 4993.17 1187.1C4992.87 1190.58 4992.56 1193.3 4992.25 1195.24C4991.53 1200.67 4990.97 1205.74 4990.56 1210.45C4990.15 1215.16 4989.95 1219.16 4989.95 1222.43C4989.95 1226.33 4990.31 1229.6 4991.02 1232.27C4991.84 1234.93 4993.22 1237.13 4995.17 1238.87C4996.5 1240.1 4997.17 1241.48 4997.17 1243.02C4997.17 1245.48 4995.89 1247.68 4993.33 1249.63C4990.87 1251.47 4987.59 1252.39 4983.49 1252.39ZM5020.8 1252.39C5019.57 1252.39 5018.29 1252.19 5016.96 1251.78C5015.73 1251.37 5014.66 1250.39 5013.73 1248.86C5012.91 1247.32 5012.5 1244.97 5012.5 1241.79C5012.5 1239.74 5012.71 1237.08 5013.12 1233.8C5013.53 1230.42 5014.09 1226.07 5014.81 1220.74C5015.32 1217.36 5015.88 1212.86 5016.5 1207.22C5017.22 1201.49 5017.57 1195.5 5017.57 1189.25C5017.57 1186.48 5017.47 1183.57 5017.27 1180.49C5017.06 1177.32 5016.65 1174.45 5016.04 1171.89C5014.81 1172.2 5013.89 1172.35 5013.27 1172.35C5012.66 1172.35 5012.2 1172.2 5011.89 1171.89C5011.58 1171.48 5011.43 1170.76 5011.43 1169.74C5011.43 1167.69 5011.63 1165.64 5012.04 1163.59C5012.56 1161.44 5013.32 1159.65 5014.35 1158.22C5015.37 1156.78 5016.55 1155.76 5017.88 1155.14C5019.32 1154.53 5020.8 1154.12 5022.34 1153.92C5024.9 1153.61 5028.12 1153.35 5032.02 1153.15C5036.01 1152.84 5040.16 1152.58 5044.46 1152.38C5048.86 1152.17 5052.86 1152.07 5056.44 1152.07C5061.26 1152.07 5064.79 1152.12 5067.04 1152.23C5069.4 1152.33 5071.19 1152.48 5072.42 1152.69C5075.08 1153.1 5076.41 1154.53 5076.41 1156.99C5076.41 1158.73 5076.06 1160.32 5075.34 1161.75C5074.72 1163.08 5073.96 1164.31 5073.03 1165.44C5071.91 1167.08 5070.68 1168.25 5069.35 1168.97C5068.12 1169.59 5066.48 1169.79 5064.43 1169.59C5062.69 1169.38 5060.28 1169.23 5057.21 1169.12C5054.24 1168.92 5050.81 1168.82 5046.92 1168.82C5045.28 1168.82 5043.13 1168.87 5040.47 1168.97C5037.8 1169.07 5034.99 1169.23 5032.02 1169.43C5031.91 1172.91 5031.61 1176.91 5031.09 1181.42C5030.58 1185.82 5030.02 1190.33 5029.4 1194.93C5032.17 1194.73 5035.5 1194.58 5039.39 1194.47C5043.28 1194.27 5047.28 1194.11 5051.37 1194.01C5055.47 1193.91 5059.11 1193.86 5062.28 1193.86C5064.12 1193.86 5065.46 1194.11 5066.27 1194.63C5067.09 1195.04 5067.5 1196.01 5067.5 1197.55C5067.5 1199.29 5067.04 1201.18 5066.12 1203.23C5065.3 1205.18 5064.18 1206.87 5062.74 1208.3C5061.41 1209.73 5059.98 1210.4 5058.44 1210.3C5055.88 1210.09 5052.24 1209.94 5047.53 1209.84C5042.92 1209.73 5038.06 1209.68 5032.94 1209.68H5028.02C5027.82 1211.94 5027.61 1214.19 5027.41 1216.44C5027.3 1218.59 5027.25 1220.59 5027.25 1222.43C5027.25 1226.02 5027.61 1229.19 5028.33 1231.96C5029.05 1234.62 5030.43 1236.93 5032.48 1238.87C5033.81 1240.2 5034.47 1241.74 5034.47 1243.48C5034.47 1245.73 5033.19 1247.78 5030.63 1249.63C5028.07 1251.47 5024.8 1252.39 5020.8 1252.39ZM5108.92 1252.85C5099.19 1252.85 5091.97 1251.32 5087.26 1248.24C5082.65 1245.07 5080.35 1239.18 5080.35 1230.58C5080.35 1228.83 5080.45 1226.74 5080.65 1224.28C5080.96 1221.82 5081.37 1218.85 5081.88 1215.37C5082.7 1210.35 5083.32 1205.89 5083.73 1202C5084.14 1198.01 5084.34 1193.65 5084.34 1188.94C5084.34 1185.87 5084.24 1182.9 5084.03 1180.03C5083.93 1177.16 5083.67 1174.45 5083.27 1171.89C5081.73 1172.2 5080.7 1172.35 5080.19 1172.35C5079.37 1172.35 5078.81 1172.2 5078.5 1171.89C5078.2 1171.48 5078.04 1170.76 5078.04 1169.74C5078.04 1167.59 5078.3 1165.49 5078.81 1163.44C5079.32 1161.29 5080.04 1159.55 5080.96 1158.22C5082.7 1155.76 5085.36 1154.33 5088.95 1153.92C5091.71 1153.61 5095.09 1153.3 5099.09 1152.99C5103.19 1152.69 5107.33 1152.48 5111.53 1152.38C5115.83 1152.17 5119.68 1152.07 5123.05 1152.07C5132.48 1152.07 5138.06 1152.28 5139.8 1152.69C5142.46 1153.1 5143.79 1154.53 5143.79 1156.99C5143.79 1160.06 5142.72 1162.88 5140.57 1165.44C5139.44 1166.97 5138.32 1168.1 5137.19 1168.82C5136.06 1169.43 5134.47 1169.69 5132.43 1169.59C5127.92 1169.28 5123.98 1169.07 5120.6 1168.97C5117.22 1168.87 5114.86 1168.82 5113.53 1168.82C5111.17 1168.82 5108.72 1168.87 5106.16 1168.97C5103.7 1169.07 5101.19 1169.23 5098.63 1169.43C5098.63 1173.02 5098.47 1176.86 5098.17 1180.95C5097.86 1185.05 5097.45 1189.35 5096.94 1193.86C5101.65 1193.55 5106.98 1193.35 5112.92 1193.24C5118.86 1193.04 5124.13 1192.94 5128.74 1192.94C5130.79 1192.94 5132.17 1193.14 5132.89 1193.55C5133.71 1193.96 5134.12 1195.04 5134.12 1196.78C5134.12 1198.42 5133.66 1200.26 5132.73 1202.31C5131.91 1204.25 5130.79 1205.94 5129.35 1207.38C5128.74 1207.99 5128.07 1208.5 5127.36 1208.91C5126.64 1209.22 5125.67 1209.32 5124.44 1209.22C5120.03 1209.02 5115.01 1208.86 5109.38 1208.76C5103.85 1208.66 5098.99 1208.66 5094.79 1208.76C5094.38 1211.12 5094.07 1213.27 5093.87 1215.21C5093.66 1217.16 5093.56 1218.9 5093.56 1220.44C5093.56 1226.07 5094.99 1230.01 5097.86 1232.27C5100.73 1234.52 5105.44 1235.65 5111.99 1235.65C5115.99 1235.65 5119.83 1235.29 5123.52 1234.57C5127.31 1233.85 5131.15 1232.52 5135.04 1230.58C5136.47 1229.76 5137.55 1229.35 5138.26 1229.35C5139.39 1229.35 5140.47 1230.17 5141.49 1231.81C5142.62 1233.34 5143.18 1235.03 5143.18 1236.87C5143.18 1239.13 5142.31 1241.28 5140.57 1243.33C5138.93 1245.27 5136.73 1246.96 5133.96 1248.4C5130.79 1249.83 5127 1250.91 5122.59 1251.62C5118.19 1252.44 5113.63 1252.85 5108.92 1252.85Z" fill="#2C494C"/>
<path d="M1657 337V1213" stroke="black" stroke-width="12" stroke-linecap="round"/>
</g>
</g>
<defs>
<filter id="filter0_d_3_151" x="0" y="0" width="5431" height="1555" filterUnits="userSpaceOnUse" color-interpolation-filters="sRGB">
<feFlood flood-opacity="0" result="BackgroundImageFix"/>
<feColorMatrix in="SourceAlpha" type="matrix" values="0 0 0 0 0 0 0 0 0 0 0 0 0 0 0 0 0 0 127 0" result="hardAlpha"/>
<feOffset dy="4"/>
<feGaussianBlur stdDeviation="2"/>
<feComposite in2="hardAlpha" operator="out"/>
<feColorMatrix type="matrix" values="0 0 0 0 0 0 0 0 0 0 0 0 0 0 0 0 0 0 0.25 0"/>
<feBlend mode="normal" in2="BackgroundImageFix" result="effect1_dropShadow_3_151"/>
<feBlend mode="normal" in="SourceGraphic" in2="effect1_dropShadow_3_151" result="shape"/>
</filter>
<filter id="filter1_d_3_151" x="0" y="0" width="5431" height="1555" filterUnits="userSpaceOnUse" color-interpolation-filters="sRGB">
<feFlood flood-opacity="0" result="BackgroundImageFix"/>
<feColorMatrix in="SourceAlpha" type="matrix" values="0 0 0 0 0 0 0 0 0 0 0 0 0 0 0 0 0 0 127 0" result="hardAlpha"/>
<feOffset dy="4"/>
<feGaussianBlur stdDeviation="2"/>
<feComposite in2="hardAlpha" operator="out"/>
<feColorMatrix type="matrix" values="0 0 0 0 0 0 0 0 0 0 0 0 0 0 0 0 0 0 0.25 0"/>
<feBlend mode="normal" in2="BackgroundImageFix" result="effect1_dropShadow_3_151"/>
<feBlend mode="normal" in="SourceGraphic" in2="effect1_dropShadow_3_151" result="shape"/>
</filter>
</defs>
</svg>
